<svg width="103" height="100" viewBox="0 0 103 100" fill="none" xmlns="http://www.w3.org/2000/svg">
<path d="M51.2657 0C22.9561 0 0 22.9521 0 51.2657C0 73.9166 14.6892 93.1331 35.0587 99.9119C37.6207 100.386 38.5616 98.7998 38.5616 97.4457C38.5616 96.2234 38.5137 92.1846 38.492 87.901C24.2294 91.0021 21.22 81.8522 21.22 81.8522C18.888 75.9266 15.5279 74.3513 15.5279 74.3513C10.8767 71.1693 15.8785 71.2344 15.8785 71.2344C21.0266 71.5963 23.7373 76.5176 23.7373 76.5176C28.3096 84.3551 35.7302 82.0891 38.6556 80.7795C39.1156 77.4657 40.4444 75.2044 41.9104 73.9243C30.5238 72.6276 18.5534 68.2318 18.5534 48.5883C18.5534 42.9915 20.5561 38.418 23.8358 34.828C23.3035 33.5365 21.5488 28.3225 24.3324 21.261C24.3324 21.261 28.6373 19.8831 38.4341 26.516C42.5231 25.3798 46.9089 24.8104 51.2657 24.7911C55.6225 24.8104 60.0115 25.3798 64.1086 26.516C73.8937 19.8831 78.1926 21.261 78.1926 21.261C80.983 28.3225 79.2275 33.5365 78.6952 34.828C81.9821 38.418 83.9711 42.9911 83.9711 48.5883C83.9711 68.2784 71.9783 72.6143 60.5627 73.8833C62.4014 75.4742 64.0398 78.5943 64.0398 83.3769C64.0398 90.2362 63.9803 95.757 63.9803 97.4457C63.9803 98.8099 64.9031 100.408 67.502 99.9051C87.8603 93.1186 102.531 73.909 102.531 51.2657C102.531 22.9521 79.5781 0 51.2657 0Z" fill="#2B2B2B"/>
<path d="M19.2007 73.0292C19.0881 73.2838 18.6869 73.3601 18.3222 73.1856C17.9503 73.0184 17.7412 72.671 17.8618 72.4153C17.9724 72.1531 18.3737 72.08 18.7448 72.2561C19.1175 72.4229 19.3298 72.7735 19.2007 73.0292V73.0292ZM21.7225 75.2792C21.478 75.506 21 75.4006 20.6755 75.0424C20.3402 74.685 20.2775 74.2073 20.5255 73.9769C20.7776 73.7506 21.2412 73.8563 21.5773 74.2141C21.9127 74.5756 21.9778 75.0504 21.7221 75.2796L21.7225 75.2792ZM23.4526 78.158C23.1382 78.3763 22.6243 78.1717 22.3071 77.7157C21.9931 77.2602 21.9931 76.7134 22.3139 76.4943C22.6324 76.2751 23.1382 76.4722 23.4598 76.9245C23.7734 77.3881 23.7734 77.9349 23.4522 78.1584L23.4526 78.158ZM26.378 81.4924C26.097 81.802 25.4987 81.7191 25.0605 81.2962C24.6126 80.8828 24.4875 80.2962 24.7694 79.9862C25.0536 79.6758 25.6555 79.7631 26.097 80.1824C26.5421 80.595 26.678 81.186 26.3784 81.4924H26.378ZM30.1591 82.6182C30.0357 83.0194 29.4591 83.202 28.8785 83.0315C28.2987 82.8558 27.9192 82.3854 28.0362 81.9797C28.1568 81.5756 28.7358 81.3854 29.3208 81.568C29.8998 81.7429 30.2801 82.2097 30.1595 82.6182H30.1591ZM34.4628 83.0954C34.4773 83.5184 33.9848 83.869 33.3752 83.8766C32.7621 83.8899 32.2663 83.5478 32.2599 83.132C32.2599 82.705 32.7412 82.3576 33.3539 82.3476C33.9635 82.3355 34.4628 82.6753 34.4628 83.0954V83.0954ZM38.6902 82.9334C38.7633 83.3459 38.3396 83.7697 37.7345 83.8823C37.1394 83.9908 36.5886 83.7363 36.5126 83.3274C36.4386 82.9044 36.8704 82.4811 37.4643 82.3713C38.0706 82.266 38.613 82.514 38.6902 82.9334" fill="#2B2B2B"/>
</svg>
