<svg width="100" height="100" viewBox="0 0 100 100" fill="none" xmlns="http://www.w3.org/2000/svg">
<path d="M78.6023 25.1324C78.3278 25.2422 78.163 25.5717 78.3278 25.8462C78.3278 25.9011 78.3827 25.9011 78.3827 25.9011C78.6572 26.5051 78.6023 27.2738 78.1631 27.768C77.9434 27.9876 77.9434 28.3171 78.1081 28.5367C78.1081 28.5367 78.1081 28.5367 78.1631 28.5916C78.2729 28.6466 78.4376 28.6466 78.5474 28.5916C78.7121 28.5916 78.8769 28.4818 78.9867 28.372C79.7554 27.4935 79.8652 26.2855 79.371 25.2422C79.0965 25.0226 78.822 24.9677 78.6023 25.1324Z" fill="#FF6C37"/>
<path d="M56.3094 0.423549C28.91 -3.14551 3.92662 16.2372 0.412466 43.6366C-3.10168 71.036 16.2261 96.0743 43.6255 99.5885C71.0249 103.103 96.0083 83.7199 99.5774 56.3754C103.092 28.976 83.7637 3.9377 56.3094 0.423549C56.3643 0.423549 56.3643 0.423549 56.3094 0.423549ZM66.6322 31.5567C65.6988 31.6116 64.8203 31.9411 64.1613 32.6L45.6022 51.1591L41.6488 47.2057C59.9334 28.976 63.2279 28.8113 66.6322 31.5567ZM46.371 51.818L64.8752 33.4785C65.9184 32.4902 67.5108 32.4902 68.554 33.4785C69.0482 33.9727 69.3228 34.6865 69.3228 35.3454C69.2678 36.0592 68.9933 36.7181 68.4442 37.2123L48.8968 54.4536L46.371 51.818ZM47.7437 54.6183L43.1314 55.7714C43.0215 55.8263 42.9666 55.8263 42.8568 55.7714C42.8019 55.6616 42.8019 55.5518 42.8568 55.4969L45.6572 52.6965L47.7437 54.6183ZM36.0481 52.6965L40.935 47.8097L44.6139 51.5984L36.2129 53.4103C36.0481 53.4652 35.8285 53.3005 35.8285 53.1358C35.7736 53.026 35.8285 52.9162 35.9383 52.8613L36.0481 52.6965ZM20.8934 78.1192C20.7836 78.0643 20.6737 78.0094 20.6188 77.8996C20.5639 77.7898 20.5639 77.6799 20.6188 77.5701L24.5722 73.6167L29.6788 78.6683L20.8934 78.1192ZM30.9966 72.848C30.6122 73.0676 30.3926 73.452 30.5024 73.8913L31.326 77.5152C31.3809 77.7349 31.2711 78.0094 31.1064 78.1192C30.9416 78.2839 30.6671 78.2839 30.5024 78.1192L25.3959 72.848L41.0448 57.1441L48.6222 55.4969L52.2462 59.1208C45.767 64.5019 38.6289 69.1142 30.9966 72.7382V72.848ZM53.0149 58.5718L49.5557 55.1125L69.1031 37.9261C69.2678 37.7614 69.4875 37.5967 69.5973 37.377C68.9384 42.9228 61.0865 50.8846 53.0149 58.5718ZM68.2246 31.6665C65.3144 28.6466 65.4242 23.8146 68.4442 20.9045C71.1897 18.2688 75.4725 18.1041 78.4376 20.4652L71.7387 27.164C71.574 27.3837 71.574 27.6582 71.7387 27.8778L76.955 33.0942C73.99 34.5218 70.4758 33.9178 68.1697 31.6116L68.2246 31.6665ZM78.9867 31.6665C78.6023 31.996 78.2729 32.3254 77.8336 32.6L72.8369 27.6033L79.2063 21.2339C81.9517 24.1441 81.8968 28.7564 78.9867 31.6665Z" fill="#FF6C37"/>
</svg>
