<svg width="134" height="100" viewBox="0 0 134 100" fill="none" xmlns="http://www.w3.org/2000/svg">
<path d="M114.845 57.4228C110.18 57.4491 106.141 58.5694 102.754 60.2374C101.503 57.7618 100.252 55.5987 100.044 53.9833C99.8092 52.1071 99.5226 50.9603 99.8092 48.7195C100.096 46.4782 101.399 43.299 101.399 43.0384C101.372 42.8039 101.112 41.6573 98.4278 41.6312C95.744 41.6052 93.4246 42.1524 93.164 42.856C92.9034 43.5596 92.3822 45.1752 92.0434 46.843C91.5744 49.2925 86.6753 57.97 83.8871 62.5303C82.975 60.7583 82.1933 59.1948 82.0366 57.9437C81.8024 56.0678 81.5155 54.9209 81.8024 52.6801C82.089 50.4388 83.392 47.2599 83.392 46.9993C83.3659 46.7648 83.1053 45.6182 80.4215 45.5922C77.7372 45.5661 75.4182 46.1133 75.1577 46.8169C74.8971 47.5205 74.6104 49.1883 74.0371 50.8039C73.4896 52.4195 66.975 66.9082 65.2811 70.6867C64.4212 72.615 63.6658 74.1525 63.1183 75.1949C62.571 76.2372 63.0922 75.273 63.0401 75.3773C62.571 76.2633 62.3105 76.7584 62.3105 76.7584V76.7847C61.9456 77.4362 61.5548 78.0613 61.3721 78.0613C61.2418 78.0613 60.9812 76.3154 61.4242 73.9182C62.3884 68.8886 64.7337 61.0452 64.7079 60.7586C64.7079 60.6283 65.1506 59.2469 63.1962 58.5436C61.2939 57.84 60.6166 59.0127 60.46 59.0127C60.3037 59.0127 60.1734 59.4296 60.1734 59.4296C60.1734 59.4296 62.2841 50.5959 56.1343 50.5959C52.2776 50.5959 46.9616 54.7914 44.3297 58.622C42.6619 59.5341 39.1179 61.4622 35.3655 63.5211C33.9323 64.3028 32.4469 65.1367 31.0397 65.8924L30.7534 65.5792C23.3006 57.6313 9.51551 52.0026 10.0888 41.3185C10.2973 37.4358 11.6523 27.1947 36.5647 14.7908C56.9687 4.62787 73.3075 7.41615 76.1476 13.6181C80.1867 22.4781 67.418 38.9472 46.2064 41.3185C38.1282 42.2306 33.8804 39.1035 32.8123 37.9309C31.6917 36.7061 31.5354 36.654 31.1184 36.8885C30.4409 37.2534 30.8579 38.3478 31.1184 38.9993C31.7439 40.641 34.3497 43.5596 38.7797 45.0189C42.6622 46.2957 52.1478 46.9993 63.6137 42.5693C76.4606 37.5921 86.4932 23.781 83.5486 12.237C80.5518 0.484534 61.0599 -3.37216 42.6364 3.16858C31.6654 7.07739 19.7826 13.1751 11.2354 21.1751C1.07249 30.6605 -0.543151 38.9472 0.134376 42.3869C2.50598 54.6606 19.4178 62.6606 26.1931 68.5759C25.8543 68.7581 25.5416 68.9405 25.255 69.0971C21.8673 70.7646 8.96828 77.5141 5.737 84.6539C2.08878 92.7321 6.31029 98.5435 9.12463 99.3252C17.8282 101.749 26.7403 97.3969 31.5612 90.2307C36.3557 83.0646 35.7827 73.7616 33.5677 69.5141L33.4893 69.3577L36.1473 67.7942C37.8674 66.7779 39.5612 65.8398 41.0463 65.0317C40.2127 67.2988 39.6131 69.9829 39.3006 73.8917C38.9358 78.4783 40.812 84.4194 43.2876 86.7647C44.3821 87.7807 45.685 87.807 46.4928 87.807C49.3593 87.807 50.6622 85.4354 52.0954 82.5953C53.8674 79.1295 55.431 75.1164 55.431 75.1164C55.431 75.1164 53.4766 85.9829 58.8186 85.9829C60.773 85.9829 62.7274 83.4552 63.6134 82.1523V82.1783C63.6134 82.1783 63.6655 82.1002 63.7697 81.9177C63.8791 81.7561 63.9834 81.591 64.0824 81.4229V81.3708C64.8642 80.0157 66.6101 76.9147 69.216 71.7812C72.5773 65.1623 75.8089 56.8756 75.8089 56.8756C75.8089 56.8756 76.1216 58.9082 77.0857 62.2437C77.6588 64.2244 78.9096 66.387 79.8738 68.4978C79.092 69.5922 78.6229 70.2179 78.6229 70.2179L78.649 70.244C78.0239 71.0778 77.32 71.9641 76.5906 72.8498C73.9326 76.029 70.7535 79.6514 70.3365 80.6938C69.8414 81.9183 69.9457 82.8303 70.9098 83.5602C71.6134 84.0814 72.8642 84.1854 74.1932 84.0814C76.5906 83.9248 78.2584 83.3257 79.0923 82.9606C80.3952 82.4916 81.8805 81.788 83.3138 80.7456C85.9196 78.8175 87.5092 76.0814 87.3529 72.4332C87.2747 70.4266 86.6232 68.4462 85.8154 66.5699C86.0499 66.2312 86.2847 65.8922 86.519 65.5276C90.6363 59.5078 93.8154 52.8891 93.8154 52.8891C93.8154 52.8891 94.1281 54.9217 95.0923 58.2572C95.5872 59.951 96.5777 61.8015 97.4637 63.6256C93.607 66.7787 91.1835 70.4269 90.3496 72.8243C88.8122 77.2543 90.0109 79.2608 92.278 79.7299C93.294 79.9383 94.7536 79.4693 95.8478 79.0002C97.2028 78.5572 98.8445 77.8012 100.356 76.681C102.962 74.7526 105.464 72.0686 105.333 68.4464C105.255 66.7787 104.812 65.137 104.213 63.5735C107.496 62.2184 111.744 61.4366 117.138 62.0881C128.734 63.4432 131.027 70.6875 130.585 73.7103C130.142 76.7334 127.718 78.4009 126.91 78.922C126.102 79.4171 125.842 79.5998 125.92 79.9644C126.024 80.5119 126.389 80.4856 127.092 80.3816C128.057 80.225 133.19 77.906 133.399 72.3297C133.711 65.1625 126.91 57.3449 114.845 57.4228V57.4228ZM25.4113 87.5727C21.5807 91.7682 16.1865 93.3578 13.8934 92.0027C11.4178 90.5695 12.3817 84.3936 17.0986 79.9375C19.9651 77.2274 23.6914 74.7258 26.141 73.1883C26.6882 72.8496 27.5221 72.3547 28.5123 71.7551C28.6687 71.6511 28.7729 71.5988 28.7729 71.5988C28.9553 71.4945 29.1638 71.3642 29.3722 71.2339C31.1182 77.5923 29.4504 83.1688 25.4113 87.5727V87.5727ZM53.4244 68.5238C52.0954 71.7812 49.2811 80.146 47.5873 79.677C46.1277 79.2861 45.242 72.9538 47.3004 66.6997C48.3427 63.5464 50.5577 59.7942 51.8607 58.3346C53.9717 55.9893 56.2646 55.2076 56.8381 56.1717C57.5157 57.4228 54.2583 66.4913 53.4244 68.5238ZM76.5385 79.5727C75.9652 79.8596 75.444 80.0678 75.2095 79.9117C75.0271 79.8075 75.4438 79.4166 75.4438 79.4166C75.4438 79.4166 78.3363 76.3156 79.4829 74.8824C80.1343 74.0488 80.9161 73.0846 81.75 71.9899V72.3026C81.7503 76.0548 78.1542 78.5564 76.5385 79.5727ZM94.3624 75.5076C93.9455 75.1949 93.9978 74.2307 95.4048 71.2079C95.9522 70.0092 97.2028 68.0026 99.3657 66.1004C99.6263 66.8821 99.7829 67.6376 99.7566 68.3414C99.7308 73.032 96.3952 74.7779 94.3624 75.5076Z" fill="#CF649A"/>
</svg>
