<svg width="87" height="100" viewBox="0 0 87 100" fill="none" xmlns="http://www.w3.org/2000/svg">
<path opacity="0.15" d="M35.1944 100C53.417 100 68.1893 98.3587 68.1893 96.3339C68.1893 94.3092 53.417 92.6678 35.1944 92.6678C16.9718 92.6678 2.19946 94.3092 2.19946 96.3339C2.19946 98.3587 16.9718 100 35.1944 100Z" fill="#45413C"/>
<path d="M44.2376 48.4301C46.6816 54.0515 44.2375 60.6505 38.6162 63.3389L1.22192 80.203V64.3166C1.22192 63.3389 1.71074 62.6057 2.68837 62.1169L37.883 45.9861C40.327 45.0084 43.0155 45.986 44.2376 48.4301Z" fill="#FFCEBF"/>
<path fill-rule="evenodd" clip-rule="evenodd" d="M38.3631 47.1103L3.21812 63.2184C2.88509 63.3877 2.70501 63.562 2.60544 63.7113C2.5093 63.8555 2.44407 64.0416 2.44407 64.3166V78.3114L38.1011 62.2307C43.1131 59.826 45.2867 53.9527 43.1304 48.9484C42.1926 47.1057 40.2037 46.3883 38.3631 47.1103ZM37.4292 44.8514C40.4601 43.6391 43.8228 44.8679 45.3307 47.8836C45.3404 47.9031 45.3497 47.9229 45.3584 47.9429C48.0661 54.1706 45.3553 61.4706 39.1436 64.4414L39.1188 64.4532L39.1187 64.4529L1.72442 81.317C1.34625 81.4876 0.907385 81.4546 0.558923 81.2295C0.210462 81.0044 0 80.6179 0 80.203V64.3166C0 63.6139 0.179174 62.9446 0.571851 62.3556C0.959428 61.7742 1.50818 61.3408 2.14197 61.0239L2.17931 61.006L37.3739 44.8752C37.3922 44.8668 37.4106 44.8589 37.4292 44.8514Z" fill="#45413C"/>
<path d="M31.5283 57.7176C30.5506 58.2064 29.573 57.7176 29.0842 56.74L26.6401 51.1186L44.9707 42.8088C46.1927 42.32 47.6591 42.8088 48.148 44.0308C49.37 46.7193 48.148 50.141 45.4595 51.363L31.5283 57.7176Z" fill="#FF6196"/>
<path d="M44.9707 46.4749C46.1927 45.9861 47.6591 46.4749 48.148 47.6969C48.148 47.9413 48.1479 47.9413 48.3924 48.1857C48.8812 46.9637 48.8812 45.4973 48.148 44.0308C47.6591 42.8088 46.1927 42.32 44.9707 42.8088L26.6401 51.1186L28.1066 54.2959L44.9707 46.4749Z" fill="#FF87AF"/>
<path fill-rule="evenodd" clip-rule="evenodd" d="M45.4466 43.9348L28.2407 51.7348L30.1901 56.2183C30.3266 56.4792 30.491 56.6068 30.6045 56.6555C30.6971 56.6951 30.81 56.7105 30.9819 56.6246C30.9949 56.6181 31.0081 56.6118 31.0213 56.6058L44.9525 50.2512C47.0057 49.3179 47.9879 46.6316 47.0356 44.5365C47.0278 44.5194 47.0205 44.5021 47.0135 44.4846C46.8206 44.0024 46.148 43.6667 45.4466 43.9348ZM49.2716 43.5495C48.4789 41.6142 46.2436 40.9835 44.517 41.6741C44.4999 41.681 44.483 41.6882 44.4663 41.6957L26.1357 50.0056C25.5278 50.2812 25.2534 50.9937 25.5196 51.6058L27.9637 57.2272C27.9724 57.2472 27.9816 57.267 27.9913 57.2865C28.3413 57.9864 28.9034 58.5855 29.6417 58.9019C30.3977 59.2259 31.2536 59.2137 32.0531 58.8214L45.9653 52.4755C45.9651 52.4756 45.9655 52.4754 45.9653 52.4755C49.2805 50.9682 50.745 46.8273 49.2716 43.5495Z" fill="#45413C"/>
<path d="M1.22192 88.7572L47.1704 67.7382C52.7918 65.2942 55.2359 58.4508 52.7918 52.8294C51.8142 50.3853 48.8813 49.4077 46.6816 50.3853L1.22192 71.4043V88.7572Z" fill="#FFCEBF"/>
<path d="M53.525 55.5179C52.5474 58.4508 50.5921 61.1393 47.4148 62.6057L1.22192 83.6247V89.0017L47.1704 67.9827C52.0586 65.783 54.5026 60.4061 53.525 55.5179Z" fill="#FFB59E"/>
<path fill-rule="evenodd" clip-rule="evenodd" d="M53.9196 52.3583C52.657 49.2313 48.9605 48.0353 46.1854 49.2687L0.709175 70.2952C0.276801 70.4951 0 70.928 0 71.4044V88.7573C0 89.1733 0.211635 89.5607 0.561677 89.7855C0.911719 90.0103 1.35208 90.0416 1.73039 89.8685L47.6686 68.8542C53.9379 66.1211 56.6008 58.549 53.9196 52.3583ZM47.1856 51.4987C48.804 50.7848 50.9591 51.5378 51.6573 53.2833L51.6712 53.3167C53.8649 58.3622 51.6435 64.461 46.6833 66.6176L2.44407 86.8544V72.1857L47.1856 51.4987Z" fill="#45413C"/>
<path d="M40.0825 62.3613C39.1048 62.8501 38.1272 62.3613 37.6384 61.3837L35.1943 55.7623L53.5249 47.4525C54.7469 46.9637 56.2133 47.4525 56.7022 48.6745C57.9242 51.363 56.7022 54.7847 54.0137 56.0067L40.0825 62.3613Z" fill="#FF6196"/>
<path d="M53.7693 51.363C54.9913 50.8742 56.4577 51.363 56.9466 52.585C56.9466 52.8294 56.9466 52.8294 57.191 53.0738C57.6798 51.8518 57.6798 50.3854 56.9466 48.9189C56.4577 47.6969 54.9913 47.2081 53.7693 47.6969L35.1943 56.0067L36.6608 59.184L53.7693 51.363Z" fill="#FF87AF"/>
<path fill-rule="evenodd" clip-rule="evenodd" d="M54.0011 48.5785L36.7952 56.3785L38.7446 60.862C38.881 61.1229 39.0454 61.2505 39.1589 61.2992C39.2515 61.3388 39.3644 61.3542 39.5364 61.2683C39.5494 61.2618 39.5625 61.2555 39.5757 61.2495L53.5069 54.8949C55.5601 53.9616 56.5424 51.2753 55.5901 49.1802C55.5823 49.1631 55.5749 49.1458 55.5679 49.1284C55.375 48.6461 54.7025 48.3104 54.0011 48.5785ZM57.8261 48.1932C57.0334 46.2579 54.7981 45.6272 53.0714 46.3178C53.0543 46.3247 53.0374 46.3319 53.0207 46.3395L34.6902 54.6493C34.0822 54.9249 33.8079 55.6374 34.074 56.2496L36.5181 61.8709C36.5268 61.8909 36.536 61.9107 36.5458 61.9302C36.8957 62.6301 37.4578 63.2292 38.1962 63.5456C38.9521 63.8696 39.8081 63.8574 40.6076 63.4651L54.5198 57.1192C54.5196 57.1193 54.5199 57.1191 54.5198 57.1192C57.8349 55.6119 59.2994 51.471 57.8261 48.1932Z" fill="#45413C"/>
<path d="M1.22192 94.1342C1.22192 94.8674 1.71074 95.6006 2.19955 96.0894C2.93277 96.5782 3.66599 96.5782 4.39921 96.5782L47.1704 83.3803C53.0362 81.6694 56.4579 75.3148 54.5026 69.4491C53.7694 67.005 51.0809 65.5385 48.6369 66.2718L1.22192 80.9362V94.1342Z" fill="#FFCEBF"/>
<path d="M48.1481 78.0033L1.22192 92.4233V94.1342C1.22192 94.8674 1.71074 95.6006 2.19955 96.0895C2.93277 96.5783 3.66599 96.5783 4.39922 96.5783L47.1704 83.3803C52.303 81.9138 55.4803 77.0257 54.9915 71.8932C53.7694 74.5816 51.3254 77.0257 48.1481 78.0033Z" fill="#FFB59E"/>
<path fill-rule="evenodd" clip-rule="evenodd" d="M55.6677 69.0794C54.7349 66.0075 51.3777 64.1737 48.2858 65.1012L0.86096 79.7687C0.349059 79.927 0 80.4003 0 80.9362V94.1341C0 95.355 0.767411 96.3854 1.33555 96.9535C1.39246 97.0104 1.45484 97.0616 1.5218 97.1062C2.56568 97.8021 3.62273 97.801 4.33244 97.8003C4.35509 97.8003 4.37739 97.8002 4.39933 97.8002C4.52147 97.8002 4.64293 97.7819 4.75965 97.7459L47.5221 84.5506C54.031 82.6465 57.8325 75.6056 55.6677 69.0794ZM48.9927 67.4409C50.7817 66.9071 52.7912 67.9966 53.3323 69.8002L53.3434 69.8355C55.0759 75.033 52.0397 80.6871 46.8284 82.2071L4.2171 95.3555C3.63732 95.351 3.29957 95.3174 2.97506 95.1329C2.62396 94.7515 2.44407 94.3613 2.44407 94.1341V81.8374L48.9881 67.4422C48.9897 67.4418 48.9912 67.4413 48.9927 67.4409Z" fill="#45413C"/>
<path d="M41.0602 76.7813C40.0825 77.0257 39.1049 76.5369 38.8605 75.5593L37.1497 69.6935L56.4578 63.5833C57.6798 63.0945 59.1463 63.8277 59.6351 65.2942C60.6127 68.2271 58.9019 71.4044 55.969 72.1376L41.0602 76.7813Z" fill="#FF6196"/>
<path d="M55.7251 67.4938C56.9471 67.005 58.4136 67.7383 58.9024 69.2047C58.9024 69.4491 58.9024 69.4491 58.9024 69.6935C59.6356 68.4715 59.6356 67.005 59.3912 65.5386C58.9024 64.3166 57.6804 63.5833 56.2139 63.8277L36.9058 69.9379L37.8834 73.1152L55.7251 67.4938Z" fill="#FF87AF"/>
<path fill-rule="evenodd" clip-rule="evenodd" d="M58.4762 65.6806C58.1711 64.7654 57.3732 64.5335 56.9121 64.7179C56.8841 64.7291 56.8557 64.7393 56.8269 64.7484L38.6577 70.4982L40.0341 75.2171C40.0385 75.2323 40.0426 75.2475 40.0465 75.2629C40.0827 75.4078 40.1613 75.4966 40.2651 75.5526C40.3739 75.6111 40.5384 75.6455 40.7373 75.602L55.606 70.9708C55.6281 70.9639 55.6505 70.9576 55.673 70.952C57.8932 70.397 59.236 67.96 58.4762 65.6806ZM56.051 62.4304C58.0206 61.6749 60.1275 62.9058 60.7948 64.9077C61.9864 68.4824 59.9249 72.3862 56.3013 73.3141L41.424 77.948C41.4018 77.9549 41.3795 77.9612 41.357 77.9668C39.8384 78.3465 38.1259 77.597 37.6819 75.8814L35.9769 70.0357C35.791 69.3981 36.1482 68.7288 36.7814 68.5284L56.051 62.4304Z" fill="#45413C"/>
<path d="M76.744 23.5006L66.4789 18.6125C65.9901 18.3681 65.5013 17.6349 65.9901 16.9017L72.3446 3.94808C73.5667 1.50401 76.4996 0.526387 78.9436 1.74842L82.6097 3.45927C85.0538 4.68131 86.0314 7.61419 84.8094 10.0583L78.4548 23.0118C78.2104 23.5006 77.4772 23.745 76.744 23.5006Z" fill="#FF6196"/>
<path d="M66.7236 18.6124L68.19 19.3457L72.3449 10.547C73.5669 8.10295 76.4998 7.12532 78.9439 8.34736L82.61 10.0582C83.3432 10.3026 83.832 10.7914 84.3209 11.5246L84.8097 10.3026C86.0317 7.85854 85.0541 4.92566 82.61 3.70362L78.9439 1.99278C76.4998 0.770741 73.5669 1.74837 72.3449 4.19244L65.9903 16.9016C65.7459 17.6348 65.9903 18.368 66.7236 18.6124Z" fill="#FF87AF"/>
<path fill-rule="evenodd" clip-rule="evenodd" d="M73.4395 4.49074L67.0872 17.4398C67.0727 17.4693 67.0571 17.4982 67.0403 17.5263L77.1847 22.357C77.282 22.3808 77.3608 22.3766 77.4104 22.366L83.7122 9.52002L83.7163 9.51173C84.6342 7.67591 83.9072 5.48345 82.0769 4.55918L78.3969 2.84182C76.5577 1.92226 74.3609 2.65315 73.4395 4.49074ZM77.4524 22.3533C77.455 22.3518 77.4564 22.3511 77.4565 22.3512ZM79.4745 0.647617C76.4299 -0.864314 72.7728 0.359016 71.2516 3.40155L64.923 16.3021C64.4878 17.0075 64.4826 17.7679 64.7332 18.3942C64.9711 18.989 65.4314 19.455 65.9323 19.7055L76.2185 24.6039C76.2637 24.6254 76.3101 24.6441 76.3575 24.6599C77.4488 25.0237 78.9396 24.7747 79.5478 23.5583L85.9024 10.6047C85.9031 10.6033 85.9039 10.6018 85.9046 10.6003C87.4251 7.55345 86.2024 3.88935 83.1562 2.36623L79.4745 0.647617Z" fill="#45413C"/>
<path d="M73.7837 22.1346L69.6006 20.1179L60.2597 39.4921L64.4428 41.5089L73.7837 22.1346Z" fill="#F0F0F0"/>
<path fill-rule="evenodd" clip-rule="evenodd" d="M68.4993 19.5871C68.7924 18.9792 69.5229 18.7239 70.1308 19.0171L74.3139 21.0338C74.9219 21.3269 75.1771 22.0574 74.884 22.6654L65.5432 42.0396C65.25 42.6476 64.5196 42.9028 63.9116 42.6097L59.7285 40.5929C59.1206 40.2998 58.8653 39.5693 59.1585 38.9614L68.4993 19.5871ZM70.1702 21.7494L61.8908 38.922L63.8723 39.8773L72.1516 22.7047L70.1702 21.7494Z" fill="#45413C"/>
<path d="M64.768 42.5644C63.3016 46.2305 59.3911 49.8966 51.5701 48.1857C55.2362 45.4973 56.7026 42.0756 57.9247 39.3871C58.9023 37.6762 61.1019 36.6986 62.8128 37.6762C65.0125 38.6539 65.7457 40.8535 64.768 42.5644Z" fill="#FF6196"/>
<path d="M54.992 45.0084C54.2588 46.2304 53.0367 47.2081 51.8147 48.1857C59.6357 49.8965 63.3018 45.986 65.0127 42.5643C65.5015 41.3423 65.5015 40.1203 65.0127 39.1426C63.3018 42.0755 60.3689 45.2528 54.992 45.0084Z" fill="#E0366F"/>
<path fill-rule="evenodd" clip-rule="evenodd" d="M59.0121 39.9483C58.9743 40.0314 58.9362 40.1155 58.8977 40.2006C57.9479 42.2973 56.7416 44.9602 54.3806 47.365C56.7673 47.5253 58.5919 47.065 59.9692 46.3174C61.8115 45.3172 62.9852 43.7314 63.6336 42.1105C63.6546 42.058 63.6792 42.0071 63.7072 41.958C64.2717 40.9701 63.9589 39.5228 62.3166 38.7929C62.2791 38.7762 62.2424 38.7576 62.2067 38.7372C61.2756 38.2052 59.7785 38.6563 59.0121 39.9483ZM63.3642 36.5842C60.8969 35.2201 58.0522 36.701 56.8638 38.7807C56.8451 38.8135 56.8279 38.847 56.8123 38.8814C56.7774 38.9582 56.7424 39.0353 56.7072 39.1128C55.5028 41.7667 54.1289 44.7939 50.8476 47.2002C50.4602 47.4843 50.2752 47.9689 50.3747 48.4389C50.4742 48.9088 50.8398 49.2768 51.3091 49.3795C55.4464 50.2845 58.6896 49.793 61.1352 48.4654C63.5402 47.1598 65.0476 45.1141 65.8725 43.0932C67.1864 40.6909 66.0526 37.811 63.3642 36.5842Z" fill="#45413C"/>
</svg>
