<svg width="50" height="50" viewBox="0 0 50 50" xmlns="http://www.w3.org/2000/svg">
    <path fill-rule="evenodd" clip-rule="evenodd"
          d="M25 50C38.8071 50 50 38.8071 50 25C50 11.1929 38.8071 0 25 0C11.1929 0 0 11.1929 0 25C0 38.8071 11.1929 50 25 50ZM6.03735 25.2529L6.17391 25.3185L6.17266 25.3046C6.3681 25.403 6.43952 25.6402 6.3681 25.8434C6.30296 26.073 6.27038 26.309 6.27038 26.5462L6.30296 27.7222C6.323 27.8926 6.38815 28.0579 6.51845 28.1954C6.60364 28.2938 6.62243 28.478 6.51845 28.5966L6.35558 28.7998C6.35558 28.8856 6.38815 29.0168 6.51845 29.0559C6.68758 29.1026 6.85797 29.2212 7.02084 29.3916L7.1574 29.5556C7.25637 29.7588 7.18997 29.9758 7.02084 30.0944L6.90307 30.1802C6.58986 30.3632 6.43952 30.7518 6.53724 31.1392C6.63496 31.5795 6.72015 32.0136 6.75273 32.454L6.80535 33.0584C6.80535 33.3284 6.9369 33.5782 7.1386 33.7814C7.34031 33.9656 7.4255 34.2154 7.4255 34.5044L7.38667 35.2476C7.38667 35.5832 7.52323 35.8987 7.75876 36.122C8.00682 36.339 8.29372 36.5094 8.67835 36.628C8.99156 36.7075 9.22709 37.009 9.25967 37.351V37.4822C9.27971 37.785 9.36491 38.074 9.4952 38.3238C9.6255 38.5939 9.79463 38.8096 10.1279 39.0468C10.4286 39.2513 10.7668 39.3825 11.1001 39.4544L11.5636 39.5528C11.9357 39.6184 12.2364 39.8355 12.4381 40.1244C12.6862 40.4474 12.953 40.6973 13.3515 40.8676C13.7561 41.0518 14.1545 41.1175 14.5918 41.0846H14.8273C14.8777 41.0747 14.9281 41.0654 14.9788 41.0561C15.1981 41.0158 15.4249 40.9742 15.6955 40.8676C15.8584 40.7944 16.0476 40.8676 16.1453 41.0316C16.2618 41.2033 16.4259 41.3345 16.5951 41.3673L16.9797 41.4531C17.0129 41.4599 17.0423 41.4681 17.0707 41.476C17.1268 41.4916 17.1787 41.5061 17.2478 41.5061L18.2463 41.6764C18.5658 41.7092 18.8665 41.8417 19.1208 42.0121L19.3363 42.1761L19.7021 42.4461L19.9376 42.6493L20.6029 43.2865C20.8059 43.5426 21.1053 43.6612 21.4386 43.7067H21.9735C22.2078 43.7395 22.3907 43.8783 22.4759 44.0423C22.5937 44.2328 22.7766 44.3641 22.9783 44.4297L23.4281 44.5344C23.7288 44.6202 24.0282 44.653 24.3614 44.6202L24.5832 44.5811C24.7461 44.5672 24.9164 44.6 25.0793 44.6858C25.2159 44.7704 25.3863 44.8498 25.5491 44.8498L25.8172 44.9356C26.1705 45.0215 26.5351 45.0215 26.8684 44.9356L27.3708 44.7716C27.5863 44.6997 27.7892 44.5685 27.9583 44.3312C28.0561 44.1609 28.2916 44.0953 28.4607 44.1609C28.6762 44.2656 28.8905 44.3312 29.126 44.3312L29.3941 44.3641C29.7462 44.3842 30.1308 44.3514 30.464 44.2656C30.7973 44.1609 31.0454 43.9641 31.2145 43.6612L31.43 43.2865L31.534 43.0896L31.6317 42.9193C31.7482 42.7477 31.9186 42.6493 32.0815 42.6493H32.317C32.669 42.6493 33.0148 42.6165 33.4195 42.4789C33.7527 42.3994 34.0396 42.1761 34.2551 41.8935L34.3203 41.7887C34.427 41.6518 34.5187 41.5018 34.6144 41.3454C34.6704 41.2539 34.7277 41.1603 34.7901 41.0657L34.8753 40.9673C34.9404 40.7957 35.0056 40.6115 35.0382 40.4146C35.057 40.2241 35.0895 40.0071 35.1422 39.8367C35.1885 39.6386 35.3376 39.5011 35.6383 39.5011C35.8926 39.5011 36.1732 39.3686 36.395 39.1983L36.5128 39.0998C36.7282 38.8828 36.9312 38.6267 37.1267 38.291C37.2306 38.1207 37.4461 38.0223 37.6616 38.1207C37.832 38.1926 37.9949 38.0538 38.0274 37.8507C38.0989 37.621 38.1978 37.4166 38.367 37.2463C38.5161 37.081 38.6338 36.8904 38.7516 36.628C38.8506 36.4236 39.0648 36.2532 39.3003 36.2532H40.2011C40.4555 36.2532 40.691 36.0892 40.7561 35.7864C40.8213 35.5504 40.9528 35.3132 41.122 35.11C41.2723 34.946 41.474 34.7744 41.7096 34.6041C41.9451 34.5056 42.1606 34.3214 42.3234 34.1044L42.5778 33.7624C42.6755 33.664 42.7406 33.4924 42.7406 33.3284C42.7406 33.177 42.8246 33.0255 42.9424 32.9536L43.1967 32.7896C43.4122 32.671 43.575 32.5006 43.6928 32.2836C43.798 32.0805 43.8958 31.8634 43.9609 31.6136V31.4761C44.0461 31.1732 44.0461 30.8389 43.9609 30.5032L43.9158 30.266C43.8644 30.1158 43.9296 29.9442 44.0336 29.8458C44.0844 29.7849 44.153 29.7286 44.2311 29.6648C44.3032 29.6058 44.3833 29.5403 44.4646 29.4584C44.6337 29.307 44.764 29.1228 44.8492 28.9197L44.8818 28.8011C44.9995 28.531 45.0321 28.1967 44.9669 27.861C44.9344 27.5721 44.8492 27.3033 44.7126 27.0661C44.6024 26.8162 44.5823 26.5336 44.6675 26.2245C44.7652 25.9418 44.7978 25.6201 44.7978 25.3172V25.186C44.7978 24.7986 44.7515 24.4113 44.5823 24.0428C44.4508 23.6554 44.2165 23.3665 43.877 23.1495L43.5437 22.8996C43.446 22.8277 43.3608 22.7091 43.3282 22.5905C43.2756 22.4593 43.2756 22.3268 43.2756 22.1892V21.8019C43.2756 21.4662 43.2618 21.1306 43.1967 20.7104C43.1578 20.4404 43.0275 20.1704 42.792 20C42.6216 19.836 42.4588 19.6 42.4588 19.33L42.4061 18.9426C42.4061 18.7395 42.4713 18.5742 42.5753 18.4367C42.7056 18.3054 42.7381 18.101 42.7381 17.9307V17.595C42.7256 17.3452 42.6078 17.1219 42.3598 16.9578C42.2032 16.8392 42.1255 16.6222 42.1581 16.4518L42.1906 16.1162L42.3084 15.3276C42.341 15.0374 42.2232 14.7875 42.0077 14.6172L41.8386 14.4986C41.7208 14.433 41.6757 14.2942 41.6757 14.1301C41.6895 13.9926 41.6757 13.8273 41.6043 13.657L41.1733 12.6841L41.0042 12.3422C40.8864 12.1251 40.691 11.9611 40.4555 11.9611L40.1159 11.922C39.8541 11.922 39.6524 11.6923 39.6524 11.4223C39.6662 11.0816 39.5672 10.7662 39.3655 10.529L39.2026 10.3119C39.0335 10.1416 38.8506 9.97 38.6351 9.80596C38.4321 9.68862 38.1841 9.63562 37.9297 9.63562H36.8924C36.6644 9.63562 36.4288 9.51701 36.3248 9.29998C36.162 9.06277 35.9916 8.84574 35.8287 8.67539L35.7435 8.5959C35.5406 8.33849 35.2085 8.17446 34.8753 8.13534L34.1574 8.02304C33.7728 7.97131 33.3882 8.02304 33.0161 8.13534C32.6703 8.27288 32.2857 8.24007 31.9198 8.06973C31.534 7.90444 31.1493 7.83251 30.7447 7.83251H29.7599C29.5257 7.8527 29.2964 7.78583 29.1273 7.61548L28.9581 7.44514C28.7301 7.28111 28.5271 7.02496 28.358 6.77513C28.1951 6.53917 27.9408 6.35495 27.6602 6.26915L27.3921 6.18334C27.1252 6.10511 26.9222 5.84897 26.8897 5.51333C26.8696 5.46033 26.8571 5.42753 26.8045 5.39472C26.7381 5.32911 26.6216 5.34173 26.5689 5.42753C26.4061 5.63194 26.1517 5.73036 25.9037 5.66475L25.6556 5.59913C25.2835 5.51459 24.919 5.4616 24.5531 5.4616H24.384C24.0971 5.4616 23.849 5.39598 23.5483 5.23195C23.3466 5.12722 23.1311 5.04142 22.9157 5.00861C22.6939 4.97454 22.4972 5.04142 22.3281 5.21176L21.6102 5.96758L21.4599 6.05338C21.3759 6.17199 21.2118 6.20479 21.0427 6.13918L20.8735 6.05338C20.6054 5.93603 20.3386 5.85023 20.0053 5.85023L19.34 5.80481C19.1383 5.78462 18.9028 5.81742 18.7399 5.87042C18.5382 5.92341 18.3678 6.03571 18.205 6.20606L17.8717 6.60731C17.7013 6.81046 17.4996 6.98206 17.2841 7.11329L16.9183 7.33663L15.6454 8.05964C15.2608 8.30947 14.9801 8.69684 14.8624 9.23563C14.7784 9.66969 14.5103 10.0116 14.0731 10.2413C13.7398 10.4116 13.4592 10.6287 13.2049 10.9176C12.9693 11.1674 12.8065 11.5422 12.7413 12.0091C12.6687 12.3964 12.3692 12.6526 12.0034 12.6526H11.4684C11.1878 12.6526 10.8821 12.6854 10.5163 12.8166C10.3534 12.9024 10.1179 12.8027 10.0139 12.5996L9.94873 12.481C9.88358 12.3434 9.73324 12.2639 9.51775 12.2639C9.43256 12.2968 9.39998 12.4154 9.43256 12.5138L9.628 12.9541C9.73324 13.1838 9.66684 13.4929 9.49771 13.657L8.89759 14.3333L8.68211 14.6159C8.56434 14.7535 8.3952 14.7863 8.1271 14.6815C8.0419 14.7017 8.00933 14.7547 8.0419 14.9188C8.0607 15.0172 8.0419 15.156 7.95671 15.2544C7.89156 15.3932 7.80762 15.4777 7.72869 15.5572L7.32402 15.8601C6.99077 16.1692 6.77528 16.5906 6.77528 17.0436L6.7427 17.6152C6.72266 17.8121 6.60489 17.9824 6.44202 18.0354C6.24031 18.101 6.0574 18.2007 5.93963 18.371L5.7705 18.5881C5.53496 18.8568 5.43724 19.2253 5.43724 19.6L5.48986 19.8032C5.48986 20.1388 5.55501 20.4732 5.65273 20.8088L5.73792 21.0789C5.7705 21.2164 5.75672 21.3678 5.65273 21.4864C5.64079 21.5022 5.6286 21.518 5.61628 21.5341C5.54078 21.6323 5.46068 21.7366 5.40467 21.8549L5.26811 22.1047C5.11777 22.3936 5.03257 22.6952 5.03257 23.0309L5 23.2479C5 23.6681 5.10399 24.0756 5.33952 24.5097C5.50239 24.8327 5.73667 25.0825 6.03735 25.2529ZM22.7089 22.6763C22.8067 22.7608 22.8267 22.9779 22.7089 23.0965L22.7315 23.1167L22.6137 23.2479C22.4634 23.4321 22.1953 23.451 22.0261 23.3198L21.9936 23.2807C21.7781 23.0649 21.51 22.9135 21.2231 22.8277L20.7532 22.6965C20.4538 22.6435 20.1857 22.4605 20.0228 22.1905C19.8525 21.9205 19.5856 21.7501 19.2849 21.7501H19.1872C18.8539 21.7173 18.5533 21.5003 18.4167 21.1319L18.3315 20.8618C18.2012 20.5262 17.9669 20.2234 17.6662 20.0202C17.3668 19.8486 17.1839 19.5142 17.1313 19.1786V18.8758C17.0661 18.501 16.897 18.1982 16.6289 18.0013C16.3483 17.7969 16.2305 17.4625 16.2956 17.1206L16.3808 16.785C16.446 16.549 16.5951 16.3648 16.8306 16.279C16.9947 16.2134 17.1639 16.0165 17.1639 15.7793V14.886C17.1826 14.6689 17.1313 14.4456 17.0461 14.2487C16.9621 14.0645 16.9947 13.8412 17.1313 13.6772L17.2165 13.5396C17.4132 13.3024 17.5172 12.968 17.5497 12.6324V12.462C17.5823 12.0608 17.7514 11.7062 18.0847 11.4892C18.438 11.2722 18.7186 10.9706 18.8878 10.5958L19.0181 10.3788C19.1884 10.0104 19.4879 9.74161 19.8537 9.623L20.3561 9.45266L20.5252 9.39966L21.1253 9.23563C21.322 9.17002 21.4912 8.96687 21.4912 8.72965C21.5112 8.49243 21.6741 8.3284 21.8958 8.3284L23.3116 8.15806C23.4455 8.15806 23.5809 8.15446 23.7173 8.15084C23.9931 8.14353 24.2727 8.13611 24.5519 8.15806L25.2823 8.21105C25.5504 8.22493 25.7195 8.48108 25.7195 8.76372C25.7195 8.81545 25.6995 8.88107 25.6669 8.93406L25.5491 9.15109C25.4538 9.3726 25.3196 9.58667 25.1883 9.79629C25.14 9.87325 25.0922 9.94961 25.0467 10.0255L24.9678 10.1113C24.8187 10.3283 24.7335 10.5643 24.7335 10.8343C24.7335 11.0514 24.5957 11.2747 24.4003 11.3403L23.943 11.5043C23.5772 11.6217 23.2577 11.845 23.0096 12.1807L22.9445 12.2463C22.729 12.5163 22.6125 12.8507 22.5598 13.1863L22.5273 13.4235C22.4947 13.5939 22.5398 13.7592 22.625 13.9295C22.7102 14.0671 22.6901 14.2323 22.5924 14.3371L22.4947 14.4355L22.3256 14.6386L22.09 14.8885C21.8946 15.1257 21.738 15.3945 21.6403 15.6973L21.5225 16.0329C21.4573 16.2361 21.4899 16.4014 21.5876 16.5717C21.6916 16.7433 21.7242 16.9604 21.6591 17.1244V17.1635C21.6077 17.4133 21.5087 17.6165 21.3722 17.8335C21.2419 18.0051 21.1892 18.2221 21.2419 18.4253V18.5237C21.2744 18.6941 21.3396 18.8594 21.4047 18.9969C21.5087 19.1609 21.5739 19.3325 21.5739 19.4966V19.5685C21.5739 19.7653 21.5087 20.0025 21.4047 20.1729L21.307 20.3369C21.2218 20.5073 21.2218 20.6789 21.307 20.8429C21.4047 21.046 21.5225 21.2177 21.6916 21.3489L21.7242 21.3817C21.8946 21.552 22.0437 21.7363 22.1552 21.9533L22.3243 22.2233C22.422 22.3936 22.5398 22.5451 22.7089 22.6763ZM25.0117 21.4473C24.9465 21.5975 24.7761 21.6504 24.6133 21.552L24.5519 21.4877C24.4141 21.4158 24.3163 21.2505 24.3163 21.0801C24.2963 20.9098 24.3289 20.7445 24.3815 20.5741C24.4328 20.3773 24.4141 20.2057 24.3289 20.0354L24.166 19.6669C24.0946 19.4966 24.0946 19.3313 24.1986 19.1609C24.2825 18.9956 24.3614 18.8051 24.3614 18.6083L24.4141 18.0695C24.4328 17.8991 24.4003 17.7338 24.2963 17.5635C24.2123 17.4449 24.2838 17.2935 24.3815 17.2279H24.4141L24.5118 17.1749C24.7335 17.0891 24.8977 16.8922 24.9691 16.6361L25.0342 16.3534C25.0793 16.0973 25.1182 15.8474 25.0793 15.5585C25.0467 15.3617 25.2171 15.1774 25.3863 15.1383H25.6669C25.915 15.1383 26.1179 15.0058 26.2871 14.8027C26.4512 14.5856 26.5677 14.3497 26.6203 14.0797L26.6855 13.6923C26.7506 13.3895 26.9724 13.1522 27.253 13.1068H27.4547C27.6564 13.0538 27.8531 13.0538 28.0548 13.0538L28.12 13.021C28.3417 13.021 28.5572 12.9352 28.7263 12.7649V12.7321C28.8892 12.6135 29.0596 12.4949 29.2225 12.4949H29.255C29.4254 12.462 29.5758 12.3838 29.7123 12.2652C29.8288 12.1479 29.993 12.0621 30.1621 12.0621L31.0629 12.0091C31.2972 11.9763 31.5327 11.8438 31.6956 11.6734L31.7808 11.575C31.8785 11.4564 32.0163 11.4236 32.1792 11.4892C32.3358 11.5561 32.4661 11.6217 32.5964 11.7264L32.7655 11.845C32.981 12.0091 33.2491 12.1277 33.536 12.1277L33.8041 12.1605C34.1374 12.1933 34.4694 12.1479 34.8026 12.0292L35.0043 11.9636C35.1735 11.9106 35.3564 12.0103 35.4416 12.1807C35.5067 12.3838 35.6045 12.5819 35.7222 12.7523L35.7874 12.8381C35.9377 13.0362 36.1595 13.1737 36.4075 13.2065H37.1129C37.3484 13.2065 37.5301 13.3768 37.609 13.5939C37.6804 13.8437 37.7794 14.0999 37.9485 14.2639L38.1114 14.4342C38.2805 14.65 38.5148 14.8014 38.7829 14.8872H38.9132C39.0498 14.9402 39.1149 15.0916 39.0823 15.2229V15.3087C38.9972 15.479 38.9972 15.6443 39.0823 15.8146L39.1149 15.9004L39.1234 15.9193C39.2188 16.1311 39.3216 16.3597 39.4482 16.5705L39.5659 16.8405C39.6511 16.9717 39.6837 17.1433 39.6837 17.3137C39.6837 17.431 39.5985 17.5105 39.4682 17.5105H39.2665C38.9866 17.4785 38.7126 17.3972 38.4504 17.3194L38.4309 17.3137L38.144 17.195C37.9285 17.1231 37.7142 17.0575 37.4787 17.0575H37.3096C37.2306 17.0575 37.1467 17.1092 37.0941 17.1622C37.0415 17.2417 36.9638 17.2808 36.8786 17.2808H36.5917C36.3574 17.2808 36.0956 17.142 35.9264 16.9717L35.8738 16.9061C35.6583 16.6563 35.3714 16.5389 35.0382 16.4859H34.8753C34.5358 16.4733 34.2363 16.4733 33.9031 16.5389H33.8705C33.5698 16.5717 33.2829 16.7042 33.0349 16.8745L32.9171 16.9402C32.753 17.0777 32.5312 17.0916 32.3684 16.973C32.1654 16.8607 31.9499 16.8607 31.7482 16.8607L31.4149 16.8935C31.1143 16.9263 30.8148 17.0108 30.5467 17.1231L30.3776 17.195C30.2085 17.2808 30.0581 17.3931 29.9604 17.5635C29.8627 17.7338 29.6923 17.8133 29.4906 17.8133H28.9944C28.8276 17.8133 28.6616 17.8398 28.488 17.8674C28.4505 17.8734 28.4126 17.8794 28.3743 17.8852C28.2052 17.9647 28.041 18.0505 27.8719 18.2209L27.7867 18.3193C27.5837 18.5023 27.486 18.7256 27.4209 18.9628C27.3232 19.1799 27.134 19.2985 26.9185 19.2985C26.6842 19.2985 26.4875 19.4171 26.3184 19.5811L25.9137 20.1199C25.8999 20.1527 25.8799 20.1855 25.8348 20.1855L25.4953 20.6915C25.3324 20.8946 25.182 21.1306 25.0643 21.3678L25.0117 21.4473ZM38.4284 33.8154C38.2254 33.9467 37.9773 33.881 37.8082 33.717L37.7806 33.7359L37.6829 33.5719C37.5977 33.4533 37.599 33.2817 37.6829 33.1643C37.7669 33.047 37.8132 32.9145 37.8458 32.7442V32.2382C37.8458 31.9354 37.7794 31.6527 37.6102 31.3966C37.4474 31.1795 37.2319 30.9953 36.9776 30.8969L36.8598 30.8111C36.6443 30.7455 36.5792 30.5083 36.6443 30.3051C36.7295 30.0679 36.7746 29.8181 36.7746 29.5619V29.4433C36.7746 29.1279 36.6631 28.8061 36.4413 28.5563L36.3562 28.4377C36.1933 28.2345 35.9778 28.0629 35.756 27.9317L35.6771 27.8989C35.4879 27.8004 35.2912 27.7285 35.1221 27.6957C34.9392 27.6301 34.8214 27.4585 34.8214 27.2945V27.2087C34.8214 26.9386 34.8014 26.6888 34.7563 26.4327L34.7037 26.1954C34.651 26.0314 34.5721 25.8598 34.4355 25.6958C34.319 25.5242 34.1549 25.4257 33.9858 25.3538L33.868 25.3084C33.5874 25.2226 33.3005 25.1898 33.0324 25.1898H32.9346C32.7643 25.1898 32.5951 25.051 32.5951 24.8542V24.8012C32.5951 24.6308 32.5174 24.4327 32.4323 24.2952C32.3345 24.1236 32.1967 24.0125 32.0276 23.9595L31.8647 23.9267C31.6292 23.8422 31.3811 23.7892 31.1268 23.7564C30.8787 23.7236 30.6632 23.6567 30.4615 23.4864C30.2598 23.3211 30.0443 23.2365 29.79 23.1507C29.562 23.0851 29.3277 23.0851 29.0922 23.0851L28.675 23.1305C28.5246 23.1495 28.3743 23.0977 28.2703 23.0119C28.1588 22.9463 28.0022 22.9009 27.8719 22.9463L27.6238 23.051C27.4221 23.0977 27.2192 23.051 27.1214 22.8807C27.0037 22.7104 27.0037 22.5123 27.1214 22.3419L27.3232 22.1388C27.486 21.8889 27.7203 21.7186 27.9884 21.6391L28.0736 21.6C28.2891 21.5344 28.5246 21.4347 28.6875 21.2643C28.8767 21.1129 29.0922 21.0271 29.2939 20.9817L29.7437 20.9098C29.9917 20.8644 30.226 20.7785 30.4415 20.6473C30.6106 20.5098 30.8587 20.424 31.113 20.424H31.6618C31.896 20.4101 32.1316 20.3382 32.3333 20.207L32.3984 20.154C32.5613 20.0555 32.7317 20.0227 32.9008 20.0227C33.0837 20.0227 33.2804 20.0682 33.4496 20.154L33.6187 20.2259C33.8993 20.3571 34.1988 20.3899 34.4994 20.3899H34.7676C34.8715 20.3571 34.9693 20.4416 34.9693 20.5603V20.6587C34.8715 20.8618 34.8715 21.099 34.9367 21.2959C34.9893 21.4334 35.0996 21.499 35.2173 21.4662L35.3213 21.4006L35.5368 21.1634C35.6734 21.0259 35.87 20.9931 36.0066 21.0978C36.1895 21.2151 36.405 21.2946 36.5742 21.3274L36.9074 21.3804C37.1555 21.4132 37.4098 21.5848 37.5727 21.7489C37.7944 21.952 37.9585 22.1552 38.1277 22.3924L38.5587 22.8984L38.8982 23.2794L39.0285 23.4498C39.264 23.687 39.5309 23.7854 39.8641 23.7854H39.8967C40.1635 23.7854 40.3991 24.0087 40.3991 24.2914V24.3444L40.3665 25.186C40.3665 25.4888 40.4179 25.7904 40.4968 26.0932L40.5494 26.1917C40.6008 26.3948 40.7649 26.5323 40.934 26.6118C41.0831 26.6118 41.1683 26.7834 41.1358 26.9538L41.1032 26.9866V27.0522C41.0305 27.2162 40.9466 27.3878 40.8351 27.5254C40.7311 27.6894 40.6659 27.861 40.6659 28.025L40.7186 28.531L40.7637 29.0042C40.7837 29.1556 40.8163 29.2742 40.8814 29.4383L40.914 29.5102C40.9854 29.6742 41.018 29.8458 40.9854 30.0099C40.9466 30.1815 40.8814 30.3329 40.7837 30.4704V30.5032L40.4504 30.9373L40.3139 31.0559C40.2299 31.1732 40.151 31.312 40.151 31.4761C40.151 31.6149 40.0658 31.7461 39.9293 31.7789L39.8641 31.8117C39.6937 31.8634 39.596 31.9631 39.5309 32.1007L39.4657 32.2193L39.3943 32.3833L39.2966 32.5536L39.1274 33.0596V33.0924C39.0623 33.3095 38.9307 33.4798 38.7616 33.5984L38.4284 33.8154ZM27.0864 25.1015H27.1189L27.1565 25.186C27.2618 25.2188 27.3795 25.2844 27.4246 25.3828L27.4773 25.4686C27.4773 25.5544 27.575 25.5544 27.6464 25.5544C27.6512 25.5468 27.6617 25.5402 27.673 25.5332C27.6913 25.5217 27.7115 25.5092 27.7115 25.4888L27.7767 25.3841C27.8418 25.2201 28.0448 25.1671 28.1814 25.2201L28.6775 25.5557L28.8992 25.7261C29.1147 25.8901 29.2124 26.1588 29.1799 26.4289C29.1473 26.5134 29.2124 26.5992 29.3164 26.5992C29.3628 26.6118 29.4016 26.5992 29.4342 26.5462L29.5971 26.3759C29.7011 26.2775 29.8652 26.2775 29.9692 26.415H30.0017C30.1182 26.5336 30.2824 26.6648 30.4515 26.6976L31.2546 26.9538C31.3523 27.0005 31.4174 27.0661 31.4174 27.1708L31.4701 27.4535C31.5227 27.6894 31.5878 27.9266 31.7181 28.097C31.8547 28.2938 32.0188 28.4452 32.1879 28.55L32.3057 28.5828C32.5412 28.7468 32.7041 28.9701 32.743 29.2528L32.7755 29.5089C32.8081 29.6275 32.8081 29.7398 32.8081 29.8445L32.8407 30.1802C32.8733 30.483 33.0035 30.7859 33.2391 30.989L33.526 31.2388C33.6901 31.3764 33.7089 31.6136 33.5786 31.7776C33.4408 31.9808 33.3243 32.1978 33.2391 32.4211V32.5006C33.1614 32.7896 33.1614 33.0722 33.194 33.3423V33.4142C33.2266 33.6438 33.3117 33.881 33.4746 34.0514C33.6112 34.2028 33.6112 34.4198 33.5072 34.5902L33.3443 34.8072C33.3032 34.8557 33.2685 34.9007 33.2363 34.9425C33.1763 35.0205 33.1251 35.087 33.0574 35.1428L32.9271 35.3132L32.5876 35.8192C32.4899 35.9845 32.4247 36.2078 32.3922 36.3718V37.5024C32.4059 37.7712 32.2105 38.021 31.9424 38.074H31.8058C31.5715 38.0879 31.3561 38.1737 31.1406 38.344C30.9714 38.5081 30.8073 38.6923 30.6382 38.9156C30.4678 39.1326 30.3701 39.3825 30.3049 39.6386C30.2398 39.8758 30.0381 40.0399 29.8025 40.0727L29.2024 40.1257C29.0007 40.1257 28.7652 40.1774 28.6023 40.296L28.4657 40.3755L28.1976 40.5459L27.7804 40.8348C27.6627 40.9332 27.5449 41.0518 27.4998 41.1704C27.4146 41.2689 27.2781 41.3219 27.1603 41.2689L27.0951 41.2361C26.931 41.1376 26.7418 41.0985 26.5464 41.0985H26.4098C26.1756 41.0985 25.9601 41.1376 25.7446 41.2033L25.608 41.2361C25.4765 41.2891 25.3787 41.3547 25.2748 41.4531C25.1896 41.5389 25.0593 41.5717 24.9741 41.5389L24.7724 41.4733C24.5444 41.3685 24.2762 41.3357 23.9893 41.3685L23.7413 41.4077C23.5195 41.4203 23.2915 41.4077 23.0698 41.3219H23.0372C22.8355 41.2689 22.6714 41.1843 22.5022 41.0657C22.3393 40.9875 22.1364 40.9017 21.9673 40.9017L21.6014 40.8361C21.3997 40.8361 21.2168 40.6973 21.099 40.4941C21.0527 40.3944 21.0665 40.296 21.1316 40.2241H21.2819L21.837 40.296L22.4371 40.4146C22.7703 40.4613 23.071 40.3629 23.2727 40.1257L23.5208 39.8557L23.7751 39.6058L23.9906 39.3497C24.2261 39.1326 24.3426 38.8437 24.3953 38.5081L24.4742 37.9554C24.5068 37.7712 24.612 37.6198 24.7749 37.5478L25.2773 37.298L25.479 37.1605C25.7797 36.9964 26.0277 36.7605 26.2294 36.4904H26.262C26.4637 36.1548 26.614 35.8204 26.6992 35.4785L26.8295 34.8741C26.8822 34.7088 26.9999 34.5713 27.1628 34.5056C27.3006 34.44 27.4171 34.334 27.5023 34.17L27.6201 33.9669C27.7842 33.664 27.8882 33.3624 27.9533 33.0268L28.0185 32.5738C28.0373 32.4035 28.0185 32.2319 27.9659 32.0678V32.035C27.9631 32.0267 27.9604 32.0184 27.9576 32.01C27.9146 31.8793 27.8681 31.7382 27.8681 31.6149C27.8681 31.4963 27.9195 31.3587 28.0373 31.3587L28.2001 31.3259C28.4031 31.2931 28.5334 31.1089 28.5334 30.8918L28.4883 29.9657C28.4695 29.7297 28.4031 29.4925 28.234 29.2894L28.155 29.2099C28.0511 29.0723 28.0185 28.9007 28.0511 28.7367V27.8951C28.0385 27.5923 27.8882 27.2894 27.6339 27.0863H27.5687C27.3658 26.9159 27.2355 26.6863 27.2029 26.4163C27.1967 26.3735 27.1908 26.3309 27.1848 26.2882C27.1529 26.0612 27.1212 25.8348 27.0663 25.6074L27.0012 25.2718C26.9824 25.1873 27.015 25.1015 27.0864 25.1015ZM25.0305 26.6976L25.1156 26.7834L25.1232 26.8352L25.1883 27.032C25.2409 27.2036 25.2735 27.4206 25.2409 27.591V28.1626L25.2735 28.3998C25.2735 28.5638 25.3387 28.7354 25.4426 28.8667C25.5404 28.984 25.5404 29.1884 25.4752 29.3197L25.3061 29.5569C25.1745 29.76 25.0906 29.9632 25.0054 30.2004C24.9215 30.4174 24.9403 30.6672 25.058 30.8376L25.1106 30.9562C25.2422 31.1922 25.2084 31.5278 25.0067 31.6918L24.9741 31.7309C24.726 31.948 24.5569 32.2823 24.4717 32.618L24.374 33.0255C24.2762 33.3271 24.0545 33.577 23.7739 33.6956L23.5721 33.7814C23.403 33.847 23.2389 33.9467 23.0698 34.117C22.9194 34.2886 22.8217 34.4854 22.8217 34.7088L22.7565 35.0444C22.724 35.3788 22.4183 35.6816 22.085 35.7144H21.4198C21.2168 35.7144 21.0013 35.8002 20.8322 35.9706L20.3298 36.4236L20.2321 36.4892C19.9978 36.6721 19.7497 36.8109 19.449 36.9094C19.1947 37.028 18.9141 37.0608 18.6134 37.028L17.9932 36.9952C17.7777 36.9762 17.5748 36.9952 17.3731 37.081C17.1902 37.1466 16.9747 37.1138 16.8055 36.9434C16.6552 36.792 16.59 36.5889 16.59 36.3718V36.0892C16.6226 36.0173 16.5387 35.9517 16.4598 35.9188L16.3746 35.9517C16.238 36.0173 16.1729 36.1889 16.1729 36.3592V36.9447C16.1916 37.0961 16.0739 37.2147 15.9373 37.2147H15.807C15.5553 37.0511 15.2912 36.9666 15.0258 36.8817L15.0177 36.8791L14.2673 36.7087C14.0518 36.6292 13.8827 36.4261 13.8827 36.2091V36.1233C13.8827 36.0185 13.8175 35.9529 13.7198 35.9529L13.6346 35.9857C13.498 36.0905 13.3013 36.0715 13.1648 35.9529L12.6624 35.4797C12.4669 35.3157 12.2126 35.2299 11.9646 35.2299C11.6977 35.2299 11.4947 35.0987 11.3644 34.8615L11.1101 34.4085C10.9947 34.2106 10.8478 34.0583 10.7026 33.9078C10.6839 33.8883 10.6652 33.869 10.6466 33.8495C10.6135 33.8174 10.5792 33.7851 10.5443 33.7523C10.4009 33.6172 10.249 33.4742 10.1442 33.3107L10.0402 33.1795C9.92994 33.0091 9.91114 32.8438 9.99508 32.6735C10.079 32.5032 10.0928 32.3051 10.0402 32.1347L9.97504 31.7991C9.90989 31.5959 10.0414 31.3789 10.2431 31.3259H10.4586C10.6603 31.3259 10.8633 31.3587 11.0324 31.4963C11.1966 31.5947 11.4121 31.6477 11.5812 31.5947L12.5146 31.3575L12.7501 31.259C12.8353 31.2388 12.9205 31.259 12.9656 31.2918L13.3828 31.7978C13.5005 31.9164 13.6183 32.035 13.7874 32.1335C13.8017 32.1415 13.8157 32.1496 13.8297 32.1576C13.962 32.2336 14.0842 32.3038 14.2372 32.3038L15.3209 32.435C15.6279 32.4678 15.9411 32.3492 16.1566 32.0994L16.3257 31.8824C16.4234 31.7638 16.5612 31.7108 16.7241 31.7638L17.1814 31.8824L17.3443 31.9152C17.6312 31.9808 17.9118 31.9808 18.1799 31.948L18.552 31.9152C18.8001 31.8824 19.0481 31.712 19.2173 31.4622C19.3864 31.206 19.6144 31.042 19.8825 31.042L20.7182 30.9562C21.0189 30.9234 21.3195 30.8048 21.5212 30.5814L21.6904 30.4502C21.8219 30.319 21.9259 30.1474 21.9259 29.977C21.9585 29.7789 22.09 29.6616 22.2592 29.6086L22.3895 29.5758C22.6438 29.4913 22.8918 29.3398 23.061 29.1228L23.1587 29.0181C23.3416 28.7872 23.4456 28.4793 23.4456 28.1765C23.4456 27.9456 23.6273 27.7424 23.8628 27.7424H24.0582C24.26 27.7752 24.4629 27.6238 24.508 27.4068V27.374C24.5606 27.1506 24.6584 26.9336 24.7761 26.7304C24.8613 26.6446 24.9453 26.632 25.0305 26.6976ZM22.7277 25.456V25.5015L22.7603 25.4888C22.7277 25.692 22.6425 25.8573 22.4734 26.0276L22.2053 26.2976C22.0875 26.3961 22.0023 26.5349 21.9572 26.6989C21.9046 26.8503 21.7868 26.9689 21.6565 26.9689L21.317 27.0345C21.1216 27.0673 20.9524 27.2061 20.8673 27.3765C20.7883 27.5418 20.5991 27.7121 20.4037 27.7121H19.647C19.4515 27.7247 19.2486 27.7979 19.1183 27.962L19.0331 28.0478L18.7462 28.3178H18.7136C18.6297 28.449 18.4656 28.4818 18.2964 28.4818L17.5134 28.4364C17.2979 28.4364 17.0762 28.502 16.9133 28.6395C16.7429 28.7506 16.5274 28.791 16.3257 28.7052H16.2731C16.209 28.6772 16.1423 28.6514 16.0759 28.6257C15.9382 28.5725 15.8016 28.5196 15.6918 28.449C15.5088 28.3304 15.2871 28.285 15.1242 28.285H14.8699C14.6544 28.285 14.4389 28.2976 14.2372 28.3506C14.0355 28.4036 13.8388 28.3178 13.7022 28.1474L13.6371 28.0818C13.468 27.8446 13.2713 27.6276 13.0696 27.4572C12.8666 27.2604 12.6323 27.109 12.3642 27.0232L12.031 26.9185C11.9984 26.8856 11.9458 26.8856 11.9458 26.8856L11.6777 26.7998C11.5135 26.7544 11.3444 26.5828 11.3444 26.3797L11.1815 25.6238C11.1414 25.4737 11.0638 25.3412 10.946 25.2365L10.8746 25.1709C10.8094 25.1381 10.7242 25.0724 10.6791 25.0068L10.51 24.8693C10.3797 24.7507 10.1767 24.6321 10.0076 24.5337L9.64178 24.3633C9.52527 24.3166 9.44008 24.198 9.44008 24.0605C9.44008 23.9091 9.44008 23.7577 9.47265 23.6264L9.64178 22.6801V22.6473L9.67436 22.4832C9.70693 22.3646 9.77834 22.2599 9.87607 22.2271L10.0389 22.1413C10.0916 22.1413 10.1442 22.0429 10.0916 21.9773C10.0778 21.9243 10.059 21.8915 10.0064 21.8915L9.94121 21.8586L9.24338 21.5558C9.04167 21.4498 8.95648 21.2202 9.04167 20.9968L9.07425 20.8656C9.19076 20.53 9.24338 20.1893 9.24338 19.8537L9.27595 19.0776C9.27595 18.8808 9.39372 18.6764 9.55659 18.5452C9.72572 18.4266 9.85602 18.236 9.94121 18.0392L9.97379 17.9534C10.0778 17.7162 10.1429 17.4663 10.1755 17.2102C10.2081 16.9604 10.307 16.7042 10.4762 16.5402L10.9786 16.0342L11.0437 15.9484C11.1941 15.7642 11.3306 15.5812 11.4095 15.344C11.5135 15.1396 11.6964 15.0084 11.9119 15.0084H11.9646C12.1287 15.0084 12.2978 15.1408 12.2978 15.344V15.4424C12.2327 15.797 12.2327 16.1515 12.2652 16.52C12.284 16.8745 12.4469 17.1963 12.715 17.4133L12.9505 17.6304C13.1009 17.7818 13.1861 17.9862 13.1861 18.1893C13.1861 18.4253 13.166 18.6423 13.1009 18.8594L13.0683 18.9641C13.0032 19.2467 13.0157 19.5357 13.1009 19.8057L13.1335 19.9041C13.2512 20.2259 13.4667 20.4896 13.721 20.6927L13.8 20.7457C14.0217 20.8959 14.236 21.0284 14.4715 21.1331C14.6745 21.2189 14.8248 21.4347 14.8699 21.6719L14.9413 22.1249C14.9413 22.5779 15.2219 22.9135 15.6066 23.0839L15.8083 23.1697C16.0764 23.3009 16.357 23.3009 16.6439 23.3009C16.892 23.2491 17.14 23.3867 17.2578 23.6365L17.343 23.8069C17.5247 24.1753 17.8254 24.4441 18.23 24.5627L18.9805 24.8125L19.3137 24.9172L19.7184 25.0157C20.0842 25.1141 20.4501 25.186 20.8347 25.186H21.5851C21.7217 25.2188 21.8921 25.2188 22.055 25.186H22.4922C22.6237 25.186 22.7277 25.2857 22.7277 25.456Z"/>
</svg>
