<svg width="71" height="100" viewBox="0 0 71 100" fill="none" xmlns="http://www.w3.org/2000/svg">
<path d="M55.5165 3.7003H49.64L55.7525 10.3368V13.4931H43.1595V9.79678H49.272L43.1595 3.16025V0H55.5205L55.5165 3.7003ZM40.6593 3.7003H34.7748L40.8953 10.3368V13.4931H28.2983V9.79678H34.4108L28.2983 3.16025V0H40.6593V3.7003ZM25.9461 3.85231H19.6056V9.64477H25.9461V13.4971H15.0933V0H25.9461V3.85231Z" fill="#131313"/>
<path d="M6.44852 91.9714L0 19.6576H70.8457L64.3892 91.9594L35.3788 100L6.44852 91.9714Z" fill="#1572B6"/>
<path d="M35.4229 93.8555L58.8647 87.355L64.3772 25.5701H35.4229V93.8555Z" fill="#33A9DC"/>
<path d="M35.4229 51.7681H47.1598L47.9679 42.6874H35.4229V33.8227H57.6646L57.4526 36.2029L55.2724 60.6448H35.4229V51.7681Z" fill="white"/>
<path d="M35.4709 74.802H35.4309L25.5542 72.1338L24.9221 65.0612H16.0254L17.2695 78.9863L35.4389 84.0427H35.4909V74.802H35.4709Z" fill="#EBEBEB"/>
<path d="M46.4077 60.2568L45.3396 72.1258L35.4468 74.794V84.0347L53.6282 78.9943L53.7602 77.4942L55.3044 60.2528H46.4077V60.2568Z" fill="white"/>
<path d="M35.4548 33.8227V42.6914H14.0371L13.8531 40.6992L13.4491 36.2029L13.2371 33.8227H35.4548ZM35.4228 51.7681V60.6368H25.6581L25.486 58.6447L25.082 54.1483L24.87 51.7681H35.4188H35.4228Z" fill="#EBEBEB"/>
</svg>
