<svg width="50" height="50" viewBox="0 0 50 50" xmlns="http://www.w3.org/2000/svg">
<path d="M25 20.6055C22.5768 20.6055 20.6055 22.5768 20.6055 25C20.6055 27.4232 22.5768 29.3945 25 29.3945C27.4232 29.3945 29.3945 27.4232 29.3945 25C29.3945 22.5768 27.4232 20.6055 25 20.6055Z" />
<path d="M25 0C11.2686 0 0 11.2686 0 25C0 38.7314 11.2686 50 25 50C38.7314 50 50 38.7314 50 25C50 11.2686 38.7314 0 25 0ZM41.1133 26.4648C41.1133 29.6964 38.4855 32.3242 35.2539 32.3242C33.2741 32.3242 31.5281 31.3319 30.4671 29.8246C29.124 31.3448 27.183 32.3242 25 32.3242C20.9616 32.3242 17.6758 29.0384 17.6758 25C17.6758 20.9616 20.9616 17.6758 25 17.6758C26.6551 17.6758 28.1666 18.2485 29.3945 19.178V19.1406H32.3242V25C32.3242 25.5016 32.2726 25.9913 32.176 26.4648H32.3242C32.3242 28.0799 33.6389 29.3945 35.2539 29.3945C36.8689 29.3945 38.1836 28.0799 38.1836 26.4648V25C38.1836 17.7302 32.2698 11.8164 25 11.8164C17.7302 11.8164 11.8164 17.7302 11.8164 25C11.8164 32.2698 17.7302 38.1836 25 38.1836C27.9297 38.1836 30.7006 37.2452 33.0138 35.4685L34.799 37.7916C31.9681 39.9646 28.5806 41.1133 25 41.1133C16.1151 41.1133 8.88672 33.8849 8.88672 25C8.88672 16.1151 16.1151 8.88672 25 8.88672C33.8849 8.88672 41.1133 16.1151 41.1133 25V26.4648Z" />
</svg>
