<svg width="71" height="100" viewBox="0 0 71 100" fill="none" xmlns="http://www.w3.org/2000/svg">
<path d="M6.44736 91.9681L0 19.6522H70.8466L64.3922 91.9567L35.3798 100L6.44736 91.9681Z" fill="#E44D26"/>
<path d="M35.4233 93.8521L58.8665 87.3524L64.3825 25.5653H35.4233V93.8521Z" fill="#F16529"/>
<path d="M35.4234 52.3863H23.6873L22.8766 43.304H35.4234V34.4347H13.1833L13.3959 36.8142L15.5757 61.2553H35.4234V52.3863ZM35.4234 75.4204L35.3844 75.4311L25.5068 72.7637L24.8753 65.6903H15.9721L17.2148 79.6163L35.3828 84.6598L35.4234 84.6484V75.4204Z" fill="#EBEBEB"/>
<path d="M6.59155 0H11.0987V4.45303H15.2216V0H19.7289V13.485H15.2216V8.9695H11.0987V13.485H6.59188L6.59155 0ZM25.6564 4.47203H21.6886V0H34.134V4.47203H30.1643V13.485H25.6565V4.47203H25.6564ZM36.1088 0H40.8089L43.6999 4.73835L46.5882 0H51.2898V13.485H46.8004V6.80095L43.6994 11.5957H43.622L40.5189 6.80095V13.485H36.1087V0H36.1088ZM53.5326 0H58.041V9.02779H64.3799V13.485H53.5326V0Z" fill="black"/>
<path d="M35.3928 52.3863V61.2553H46.3145L45.2848 72.7582L35.3928 75.4278V84.6551L53.5753 79.6163L53.7083 78.1174L55.7928 54.768L56.0092 52.3863H53.6194H35.3928ZM35.3928 34.4347V43.304H56.8164L56.994 41.3104L57.3981 36.8142L57.6103 34.4347H35.3928Z" fill="white"/>
</svg>
