<svg width="100" height="100" viewBox="0 0 100 100" fill="none" xmlns="http://www.w3.org/2000/svg">
<path d="M0 0H100V100H0V0Z" fill="#F0DB4F"/>
<path d="M91.8155 76.1501C91.0836 71.5873 88.1083 67.7565 79.2965 64.1824C76.2357 62.7756 72.8231 61.768 71.806 59.4486C71.4448 58.0988 71.3973 57.3383 71.6254 56.5208C72.2813 53.8687 75.4467 53.0417 77.9562 53.8022C79.5722 54.344 81.1026 55.5893 82.0246 57.5759C86.3402 54.7814 86.3307 54.8003 89.344 52.8802C88.2414 51.1692 87.652 50.3801 86.9296 49.6483C84.3345 46.749 80.7984 45.2566 75.1425 45.3707C74.1634 45.4943 73.1749 45.6273 72.1957 45.7509C69.3726 46.4639 66.6824 47.9468 65.1045 49.9334C60.3707 55.3042 61.7205 64.7052 67.4809 68.5741C73.1558 72.8327 81.4923 73.8023 82.557 77.7852C83.5931 82.6616 78.9734 84.2394 74.3821 83.6787C70.998 82.9753 69.116 81.2547 67.0817 78.1274C63.3365 80.2947 63.3365 80.2947 59.4867 82.5095C60.3993 84.5057 61.3592 85.4087 62.8898 87.1388C70.1331 94.4867 88.2604 94.1255 91.5114 83.0038C91.6444 82.6235 92.519 80.0759 91.8155 76.1501V76.1501ZM54.3631 45.96H45.0094C45.0094 54.0398 44.9715 62.0626 44.9715 70.1425C44.9715 75.2851 45.2377 79.9999 44.4012 81.4448C43.0323 84.2869 39.4867 83.9353 37.8707 83.3838C36.2263 82.5758 35.3898 81.4257 34.4202 79.8003C34.154 79.3345 33.9544 78.9733 33.8878 78.9448C31.3498 80.4942 28.8212 82.053 26.2832 83.6026C27.5476 86.1976 29.4106 88.4505 31.7965 89.9142C35.3611 92.053 40.152 92.7089 45.1616 91.5587C48.4221 90.6082 51.2357 88.6406 52.7091 85.6463C54.8383 81.7204 54.3821 76.9676 54.3631 71.7109C54.4106 63.1368 54.3631 54.5626 54.3631 45.96Z" fill="#2B2B2B"/>
</svg>
