<svg width="91" height="100" viewBox="0 0 91 100" fill="none" xmlns="http://www.w3.org/2000/svg">
<path d="M84.8779 49.2358C84.8779 44.0952 80.7106 39.9279 75.5699 39.9279C75.2392 39.9279 74.9131 39.9456 74.5916 39.9792L87.376 2.27322H33.0466L45.813 39.9467C45.6259 39.9354 45.4377 39.9279 45.2474 39.9279C40.1068 39.9279 35.9395 44.0952 35.9395 49.2358C35.9395 53.3911 38.6626 56.909 42.4214 58.1059C40.436 61.5445 37.9382 64.6415 35.1023 67.3169C31.2459 70.955 26.8325 73.7135 22.0593 75.4134C16.3761 72.494 13.6922 66.0008 16.114 60.308C16.3874 59.6653 16.6665 59.0135 16.9335 58.3648C21.0506 57.4038 24.1185 53.7126 24.1185 49.3027C24.1185 44.162 19.9513 39.9948 14.8106 39.9948C9.66962 39.9948 5.50235 44.162 5.50235 49.3027C5.50235 52.4552 7.071 55.2392 9.46836 56.9231C7.16438 62.1688 3.77807 67.6582 2.72299 74.0205C1.45852 81.6459 2.7191 89.7399 9.3138 94.3108C24.6728 104.956 41.3447 87.7118 58.9231 83.3769C65.2936 81.8058 72.2866 82.059 77.8994 78.8082C82.1144 76.367 84.8931 72.3214 85.6818 67.7792C86.4607 63.2922 85.3249 58.8246 82.7132 55.202C84.064 53.5863 84.8779 51.5066 84.8779 49.2358ZM54.5546 49.2687C54.5546 49.2578 54.5557 49.2468 54.5557 49.2358C54.5557 45.8601 52.7582 42.9039 50.0687 41.2723L60.2297 20.7257L70.4084 41.4902C67.9088 43.159 66.2617 46.0048 66.2617 49.2358C66.2617 49.3038 66.2656 49.3706 66.267 49.4382L54.5546 49.2687Z" fill="#C63D14"/>
<path d="M87.1509 49.2358C87.1509 43.582 83.0773 38.8643 77.7114 37.8567L90.5467 0H29.8755L42.7303 37.9334C37.5511 39.0861 33.6661 43.7146 33.6661 49.2358C33.6661 53.3822 35.8572 57.0243 39.1413 59.0708C37.5617 61.4239 35.6885 63.6384 33.5419 65.6633C30.1379 68.8749 26.3452 71.3105 22.2565 72.9127C18.1384 70.3258 16.3975 65.4476 18.2056 61.1976L18.347 60.8651C18.4355 60.6571 18.5242 60.4484 18.6127 60.2397C23.1358 58.6626 26.3916 54.357 26.3916 49.3027C26.3916 42.9167 21.1961 37.7215 14.8101 37.7215C8.42404 37.7215 3.22892 42.9167 3.22892 49.3027C3.22892 52.5259 4.55352 55.4447 6.68561 57.5463C6.29902 58.3704 5.89262 59.208 5.47491 60.0661C3.52532 64.0703 1.31577 68.6089 0.479981 73.6488C-1.17992 83.6581 1.49722 91.6595 8.01835 96.179C11.9755 98.9216 15.9939 100 20.0377 100C27.6525 99.9996 35.355 96.1744 42.8887 92.4323C48.3148 89.7375 53.9252 86.9507 59.4673 85.584C61.5293 85.0754 63.6512 84.7694 65.8975 84.4454C70.352 83.8028 74.9585 83.1385 79.0388 80.7754C83.7681 78.0361 87.0059 73.4408 87.9212 68.1682C88.7071 63.642 87.761 59.109 85.4542 55.2643C86.5298 53.5071 87.1509 51.4429 87.1509 49.2358ZM82.6044 49.2358C82.6044 53.1148 79.4487 56.2709 75.5694 56.2709C71.6907 56.2709 68.5347 53.1148 68.5347 49.2358C68.5347 45.3568 71.6907 42.2011 75.5694 42.2011C79.4487 42.2011 82.6044 45.3568 82.6044 49.2358ZM84.2046 4.54644L72.8703 37.9755C72.379 38.0933 71.9001 38.2418 71.435 38.4205L60.2383 15.5793L49.0091 38.2853C48.5239 38.118 48.0244 37.9805 47.5123 37.8786L36.2169 4.54644H84.2046ZM45.2472 42.2011C49.1262 42.2011 52.2819 45.3568 52.2819 49.2358C52.2819 53.1148 49.1262 56.2709 45.2472 56.2709C41.3685 56.2709 38.2125 53.1148 38.2125 49.2358C38.2125 45.3568 41.3685 42.2011 45.2472 42.2011ZM14.8101 42.268C18.6894 42.268 21.8451 45.4237 21.8451 49.3027C21.8451 53.1817 18.6894 56.3377 14.8101 56.3377C10.9314 56.3377 7.77536 53.1817 7.77536 49.3027C7.77536 45.4237 10.9314 42.268 14.8101 42.268ZM83.4416 67.3905C82.7572 71.3335 80.3217 74.7781 76.7599 76.8409C73.4398 78.764 69.461 79.338 65.2485 79.9453C62.9919 80.2707 60.6582 80.6074 58.3786 81.1698C52.3509 82.6561 46.5124 85.556 40.8663 88.3605C29.5674 93.9726 19.8092 98.819 10.6085 92.4422C3.86876 87.7712 4.18002 79.1286 4.96523 74.3926C5.69278 70.005 7.66005 65.964 9.56259 62.056C9.89189 61.3797 10.2116 60.7172 10.5254 60.059C11.469 60.4364 12.4725 60.6935 13.5184 60.8103C11.5819 67.2019 14.6276 74.1514 21.0199 77.4355L21.8946 77.885L22.8213 77.555C27.875 75.7554 32.5314 72.8671 36.6619 68.9704C39.332 66.4517 41.6264 63.6649 43.513 60.6872C44.0789 60.7724 44.6579 60.8173 45.2472 60.8173C51.6332 60.8173 56.8287 55.6222 56.8287 49.2358C56.8287 45.8014 55.3244 42.7129 52.9419 40.59L60.2203 25.872L67.5726 40.8705C65.3666 42.9807 63.9882 45.9493 63.9882 49.2358C63.9882 55.6222 69.1834 60.8173 75.5694 60.8173C78.023 60.8173 80.299 60.0484 82.1736 58.7418C83.4752 61.4062 83.9602 64.4042 83.4416 67.3905Z" fill="white"/>
</svg>
