<svg width="50" height="50" viewBox="0 0 50 50" xmlns="http://www.w3.org/2000/svg">
<path d="M24.9999 0C11.1928 0 0 11.1928 0 25C0 38.8072 11.1928 50 24.9999 50C38.8071 50 50 38.8072 50 25C49.9999 11.1928 38.8069 0 24.9999 0ZM18.3299 37.0864H12.8409V19.3529H18.3299V37.0864ZM15.5593 17.0306C13.7666 17.0306 12.3134 15.5655 12.3134 13.7585C12.3134 11.9513 13.7668 10.4863 15.5593 10.4863C17.3517 10.4863 18.805 11.9513 18.805 13.7585C18.8051 15.5656 17.3518 17.0306 15.5593 17.0306ZM38.8999 37.0864H33.4375V27.7778C33.4375 25.2247 32.4678 23.7996 30.449 23.7996C28.2519 23.7996 27.1041 25.2839 27.1041 27.7778V37.0864H21.8395V19.3529H27.1041V21.7413C27.1041 21.7413 28.6877 18.812 32.4479 18.812C36.2082 18.812 38.9 21.108 38.9 25.8578L38.8999 37.0864Z"/>
</svg>
