<svg width="113" height="100" viewBox="0 0 113 100" fill="none" xmlns="http://www.w3.org/2000/svg">
<path d="M112.831 50.0114C112.831 42.5727 103.47 35.523 89.1194 31.1513C92.4312 16.5942 90.9593 5.01259 84.4737 1.30465C82.9788 0.434881 81.2309 0.0228882 79.322 0.0228882V5.12703C80.3799 5.12703 81.2309 5.33303 81.9438 5.72213C85.0716 7.50744 86.4285 14.3053 85.3706 23.0488C85.1176 25.2003 84.7036 27.4662 84.1977 29.778C79.69 28.6793 74.7683 27.8325 69.5936 27.2831C66.4888 23.0488 63.269 19.2035 60.0262 15.8389C67.5237 8.90364 74.5613 5.10414 79.345 5.10414V0C73.0204 0 64.7409 4.48615 56.3694 12.2683C47.998 4.53193 39.7185 0.0915545 33.3939 0.0915545V5.1957C38.1546 5.1957 45.2151 8.97231 52.7127 15.8618C49.4929 19.2264 46.2731 23.0488 43.2143 27.2831C38.0166 27.8325 33.0949 28.6793 28.5872 29.8009C28.0582 27.512 27.6673 25.2918 27.3913 23.1632C26.3103 14.4198 27.6443 7.62188 30.7491 5.81369C31.439 5.40169 32.336 5.21859 33.3939 5.21859V0.114443C31.462 0.114443 29.7141 0.526436 28.1962 1.3962C21.7336 5.10414 20.2847 16.6629 23.6195 31.1742C9.31441 35.5688 0 42.5956 0 50.0114C0 57.4502 9.36041 64.4999 23.7115 68.8716C20.3997 83.4287 21.8716 95.0103 28.3572 98.7182C29.8521 99.588 31.6 100 33.5319 100C39.8565 100 48.136 95.5138 56.5074 87.7317C64.8789 95.4681 73.1584 99.9084 79.483 99.9084C81.4149 99.9084 83.1628 99.4964 84.6807 98.6267C91.1432 94.9187 92.5921 83.36 89.2574 68.8487C103.516 64.477 112.831 57.4273 112.831 50.0114V50.0114ZM82.8868 34.7448C82.0358 37.6974 80.9779 40.7416 79.782 43.7858C78.839 41.9547 77.8501 40.1236 76.7691 38.2925C75.7112 36.4614 74.5843 34.6761 73.4574 32.9366C76.7232 33.4173 79.8739 34.0124 82.8868 34.7448ZM72.3534 59.1211C70.5595 62.211 68.7197 65.1408 66.8108 67.8645C63.384 68.162 59.9112 68.3223 56.4154 68.3223C52.9427 68.3223 49.4699 68.1621 46.0661 67.8874C44.1572 65.1637 42.2943 62.2568 40.5004 59.1897C38.7526 56.1913 37.1657 53.1472 35.7167 50.0801C37.1427 47.013 38.7526 43.946 40.4774 40.9476C42.2713 37.8576 44.1112 34.9279 46.0201 32.2042C49.4469 31.9066 52.9197 31.7464 56.4154 31.7464C59.8882 31.7464 63.361 31.9066 66.7648 32.1813C68.6737 34.905 70.5365 37.8119 72.3304 40.8789C74.0783 43.8773 75.6652 46.9215 77.1141 49.9886C75.6652 53.0556 74.0783 56.1227 72.3534 59.1211ZM79.782 56.1456C81.0239 59.2126 82.0818 62.2797 82.9558 65.2552C79.943 65.9876 76.7692 66.6056 73.4804 67.0863C74.6073 65.3239 75.7342 63.5157 76.7922 61.6617C77.8501 59.8306 78.839 57.9766 79.782 56.1456ZM56.4614 80.5676C54.3226 78.3703 52.1837 75.9213 50.0678 73.2433C52.1377 73.3349 54.2536 73.4035 56.3924 73.4035C58.5543 73.4035 60.6932 73.3577 62.786 73.2433C60.7162 75.9213 58.5773 78.3703 56.4614 80.5676ZM39.3505 67.0863C36.0847 66.6056 32.9339 66.0105 29.9211 65.2781C30.7721 62.3255 31.83 59.2813 33.0259 56.2371C33.9689 58.0682 34.9578 59.8993 36.0387 61.7304C37.1197 63.5615 38.2236 65.3468 39.3505 67.0863ZM56.3464 19.4553C58.4853 21.6526 60.6242 24.1016 62.74 26.7796C60.6702 26.688 58.5543 26.6194 56.4154 26.6194C54.2536 26.6194 52.1147 26.6651 50.0218 26.7796C52.0917 24.1016 54.2306 21.6526 56.3464 19.4553ZM39.3275 32.9366C38.2006 34.699 37.0737 36.5072 36.0157 38.3612C34.9578 40.1923 33.9689 42.0233 33.0259 43.8544C31.784 40.7874 30.7261 37.7203 29.8521 34.7448C32.8649 34.0352 36.0387 33.4173 39.3275 32.9366V32.9366ZM18.5138 61.593C10.3723 58.1369 5.10568 53.6049 5.10568 50.0114C5.10568 46.4179 10.3723 41.8631 18.5138 38.4298C20.4917 37.583 22.6536 36.8276 24.8844 36.1181C26.1953 40.6043 27.9202 45.2735 30.0591 50.0572C27.9432 54.818 26.2413 59.4644 24.9534 63.9277C22.6766 63.2181 20.5147 62.4399 18.5138 61.593ZM30.8871 94.3008C27.7592 92.5154 26.4023 85.7176 27.4603 76.9741C27.7133 74.8226 28.1272 72.5566 28.6332 70.2449C33.1409 71.3436 38.0626 72.1904 43.2373 72.7398C46.3421 76.9741 49.5619 80.8194 52.8047 84.184C45.3071 91.1192 38.2696 94.9187 33.4859 94.9187C32.4509 94.8959 31.577 94.6899 30.8871 94.3008V94.3008ZM85.4396 76.8597C86.5205 85.6031 85.1866 92.401 82.0818 94.2092C81.3919 94.6212 80.4949 94.8043 79.437 94.8043C74.6763 94.8043 67.6157 91.0277 60.1182 84.1382C63.338 80.7736 66.5578 76.9512 69.6166 72.7169C74.8143 72.1675 79.736 71.3207 84.2437 70.1991C84.7726 72.5109 85.1866 74.7311 85.4396 76.8597V76.8597ZM94.294 61.593C92.3162 62.4399 90.1543 63.1952 87.9234 63.9048C86.6125 59.4186 84.8876 54.7494 82.7488 49.9657C84.8646 45.2048 86.5665 40.5585 87.8545 36.0952C90.1313 36.8048 92.2932 37.583 94.317 38.4298C102.459 41.886 107.725 46.4179 107.725 50.0114C107.702 53.6049 102.436 58.1598 94.294 61.593V61.593Z" fill="#61DAFB"/>
<path d="M56.3922 60.4714C62.1969 60.4714 66.9025 55.7883 66.9025 50.0113C66.9025 44.2344 62.1969 39.5513 56.3922 39.5513C50.5875 39.5513 45.8818 44.2344 45.8818 50.0113C45.8818 55.7883 50.5875 60.4714 56.3922 60.4714Z" fill="#61DAFB"/>
</svg>
