<svg width="106" height="100" viewBox="0 0 106 100" xmlns="http://www.w3.org/2000/svg">
    <path d="M73.1389 69.8392C77.0341 69.4368 79.9892 66.0858 79.8548 62.0642C79.7208 58.0429 76.3624 54.8257 72.3328 54.8257H72.0643C67.8998 54.9598 64.6763 58.4449 64.8107 62.6003C64.9451 64.6111 65.7508 66.3537 66.9597 67.5601C62.3928 76.5416 55.408 83.1098 44.9308 88.6057C37.8116 92.3591 30.4239 93.6997 23.0363 92.7615C16.9916 91.9571 12.2902 89.2764 9.33465 84.8523C5.03656 78.2841 4.63372 71.1793 8.26054 64.075C10.8128 58.981 14.8421 55.2277 17.3944 53.351C16.8571 51.6084 16.051 48.6594 15.6482 46.5149C-3.82887 60.5899 -1.81383 79.6247 4.09646 88.6057C8.52897 95.3085 17.5288 99.4639 27.4688 99.4639C30.1551 99.4639 32.8414 99.1956 35.5281 98.5257C52.7217 95.1743 65.7512 84.9865 73.1389 69.8392V69.8392ZM96.78 53.2172C86.5712 41.2868 71.5271 34.7186 54.3335 34.7186H52.1844C50.9755 32.3058 48.4232 30.6969 45.6025 30.6969H45.3336C41.17 30.8311 37.9464 34.3162 38.0804 38.472C38.2148 42.4932 41.5728 45.7105 45.6025 45.7105H45.8709C48.826 45.5763 51.3783 43.6996 52.4529 41.1527H54.8707C65.0795 41.1527 74.7506 44.1017 83.4821 49.8659C90.198 54.2895 95.0338 60.0537 97.7201 67.024C100.004 72.654 99.8691 78.15 97.4513 82.8419C93.6904 89.9463 87.3773 93.8338 79.0491 93.8338C73.6761 93.8338 68.5719 92.225 65.8852 91.0185C64.4078 92.3591 61.7211 94.5037 59.8405 95.8446C65.6168 98.5253 71.5271 100 77.1685 100C90.0636 100 99.6007 92.8952 103.228 85.7909C107.123 78.0158 106.854 64.6111 96.78 53.2172V53.2172ZM28.5433 72.1175C28.6777 76.1391 32.0357 79.356 36.0654 79.356H36.3342C40.4983 79.2223 43.7218 75.7367 43.5874 71.5813C43.4534 67.5597 40.095 64.3429 36.0654 64.3429H35.7969C35.5281 64.3429 35.1248 64.3429 34.8568 64.4766C29.3494 55.3614 27.0659 45.4422 27.872 34.7182C28.4089 26.6753 31.0956 19.7047 35.7969 13.9404C39.6922 8.98064 47.2142 6.56781 52.3188 6.43408C66.5569 6.1658 72.6012 23.86 73.0044 30.9648C74.7506 31.3668 77.7058 32.3054 79.7208 32.9756C78.1086 11.2602 64.6763 0 51.7816 0C39.6922 0 28.5433 8.71318 24.1104 21.5818C17.9317 38.7398 21.9613 55.2277 29.4834 68.2304C28.8121 69.1685 28.4089 70.6432 28.5433 72.1179V72.1175Z"
    />
</svg>
