<svg width="123" height="100" viewBox="0 0 123 100" fill="none" xmlns="http://www.w3.org/2000/svg">
<path fill-rule="evenodd" clip-rule="evenodd" d="M102.454 7.08502L105.036 10.4839C105.714 11.3809 105.544 12.6667 104.647 13.3445L101.906 15.4276C102.404 16.7533 102.723 18.1686 102.853 19.6139L105.973 20.0425C107.089 20.192 107.867 21.2286 107.717 22.3449L107.139 26.581C106.989 27.6973 105.953 28.4848 104.837 28.3253L101.428 27.8568C100.82 29.1825 100.042 30.3985 99.1253 31.4849L101.039 33.9967C101.717 34.8937 101.537 36.1795 100.64 36.8573L97.2414 39.4388C96.3444 40.1166 95.0586 39.9372 94.3808 39.0501L92.2977 36.3091C90.9621 36.8074 89.5567 37.1264 88.1014 37.256L87.6729 40.3757C87.5233 41.4921 86.4867 42.2695 85.3704 42.12L81.1343 41.5419C80.018 41.3924 79.2405 40.3558 79.39 39.2395L79.8585 35.8307C78.5428 35.2226 77.3169 34.4452 76.2304 33.5382L73.7187 35.4419C72.8216 36.1197 71.5358 35.9503 70.858 35.0532L68.2765 31.6544C67.5988 30.7573 67.7682 29.4715 68.6652 28.7937L71.4063 26.7106C70.9079 25.375 70.5889 23.9696 70.4594 22.5243L67.3396 22.0957C66.2233 21.9462 65.4358 20.9096 65.5953 19.7933L66.1734 15.5572C66.3329 14.4409 67.3595 13.6634 68.4759 13.8129L71.8847 14.2814C72.4927 12.9657 73.2701 11.7397 74.1772 10.6533L72.2734 8.14155C71.5956 7.25446 71.7651 5.96868 72.6621 5.29091L76.061 2.70938C76.958 2.03161 78.2438 2.20105 78.9216 3.0981L81.0047 5.83911C82.3304 5.34074 83.7457 5.02179 85.191 4.89221L85.6196 1.77246C85.7691 0.656121 86.8057 -0.131294 87.922 0.0182149L92.1581 0.596317C93.2745 0.745826 94.0619 1.78242 93.9024 2.89876L93.4339 6.30757C94.7596 6.91557 95.9756 7.69302 97.072 8.61001L99.5838 6.70626C100.481 6.01852 101.767 6.18796 102.454 7.08502ZM29.5736 66.8987V50.4526H38.0458C39.6206 50.4526 40.8167 50.5822 41.644 50.8613C42.4712 51.1304 43.149 51.6288 43.6474 52.3564C44.1557 53.094 44.4149 53.9811 44.4149 55.0276C44.4149 55.9347 44.2155 56.732 43.8268 57.3899C43.4381 58.0577 42.8998 58.5959 42.2221 59.0046C41.7935 59.2637 41.1954 59.483 40.4379 59.6524C41.0459 59.8618 41.4845 60.0511 41.7536 60.2605C41.943 60.4 42.2121 60.689 42.5609 61.1276C42.9098 61.5662 43.149 61.915 43.2686 62.1542L45.7405 66.9086H39.9994L37.2883 61.8951C36.9394 61.2472 36.6404 60.8186 36.3713 60.6292C36.0025 60.3801 35.5839 60.2505 35.1254 60.2505H34.6768V66.9086H29.5736V66.8987ZM47.4948 95.5347H38.0059L36.6404 100H28.0885L38.285 72.899H47.4549L57.6115 100H48.8403L47.4948 95.5347ZM45.7206 89.6639L42.7603 79.9159L39.79 89.6639H45.7206ZM59.5851 72.899H73.5193C76.5593 72.899 78.8319 73.6166 80.3369 75.0619C81.842 76.5071 82.5995 78.5703 82.5995 81.2316C82.5995 83.9726 81.7722 86.1156 80.1276 87.6605C78.483 89.2054 75.9613 89.9729 72.5824 89.9729H67.9875V100H59.5851V72.899V72.899ZM67.9875 84.4809H70.0507C71.6754 84.4809 72.8216 84.2019 73.4794 83.6337C74.1373 83.0756 74.4662 82.3479 74.4662 81.4808C74.4662 80.6336 74.1772 79.906 73.609 79.3179C73.0409 78.7298 71.9644 78.4308 70.3896 78.4308H67.9875V84.4809V84.4809ZM85.9884 72.899H94.3908V100H85.9884V72.899V72.899ZM34.6768 57.1307H36.8198C37.049 57.1307 37.4976 57.051 38.1654 56.9015C38.5043 56.8317 38.7833 56.6623 38.9927 56.3832C39.2119 56.1041 39.3116 55.7851 39.3116 55.4263C39.3116 54.8981 39.1422 54.4794 38.8033 54.2003C38.4644 53.9113 37.8365 53.7718 36.9095 53.7718H34.6768V57.1307ZM46.7173 50.4526H60.3226V53.9611H51.8206V56.5825H59.7047V59.9315H51.8206V63.1709H60.5718V66.8887H46.7173V50.4526ZM61.7779 61.4565L66.602 61.1575C66.7017 61.9449 66.921 62.533 67.2399 62.9417C67.7682 63.5995 68.5157 63.9384 69.4826 63.9384C70.2002 63.9384 70.7683 63.7689 71.1571 63.43C71.5458 63.0912 71.7451 62.6925 71.7451 62.2439C71.7451 61.8153 71.5558 61.4366 71.187 61.0977C70.8182 60.7588 69.951 60.4498 68.5855 60.1408C66.3628 59.6425 64.778 58.9747 63.8212 58.1474C62.8643 57.3201 62.3859 56.2636 62.3859 54.9778C62.3859 54.1306 62.6351 53.3332 63.1234 52.5856C63.6118 51.8381 64.3494 51.2401 65.3362 50.8115C66.3229 50.3829 67.6685 50.1736 69.3829 50.1736C71.486 50.1736 73.0808 50.5623 74.1871 51.3497C75.2835 52.1371 75.9414 53.3731 76.1507 55.0874L71.3764 55.3765C71.2468 54.6289 70.9777 54.0807 70.579 53.7518C70.1703 53.4129 69.6022 53.2435 68.8945 53.2435C68.3064 53.2435 67.8579 53.3731 67.5589 53.6222C67.2599 53.8714 67.1104 54.1804 67.1104 54.5392C67.1104 54.7984 67.2399 55.0276 67.4791 55.2469C67.7184 55.4562 68.2765 55.6655 69.1736 55.8549C71.3963 56.3333 72.9911 56.8217 73.9479 57.3101C74.9048 57.7985 75.6124 58.4065 76.041 59.1342C76.4796 59.8518 76.6989 60.6691 76.6989 61.5662C76.6989 62.6227 76.4098 63.5895 75.8218 64.4766C75.2437 65.3637 74.4263 66.0415 73.3798 66.5C72.3332 66.9585 71.0175 67.1877 69.4228 67.1877C66.6319 67.1877 64.6883 66.6495 63.6118 65.573C62.5354 64.4766 61.9274 63.1111 61.7779 61.4565ZM77.4365 50.4526H92.8957V54.5193H87.7127V66.8987H82.6294V54.5193H77.4365V50.4526V50.4526ZM60.3326 11.4208C58.5086 11.2812 56.6646 11.3012 54.8406 11.4806C49.2291 12.0188 43.777 14.0621 39.2717 17.5606C34.0589 21.5974 30.1018 27.6375 28.5769 35.6413L28.0984 38.1431L25.6066 38.5816C23.1646 39.0102 20.9818 39.5983 19.0681 40.3458C17.2142 41.0635 15.5596 41.9506 14.1143 42.9971C12.9581 43.8344 11.9614 44.7713 11.1142 45.788C8.49279 48.9277 7.27678 52.8647 7.30668 56.8516C7.33658 60.8984 8.65226 64.9849 11.0843 68.3439C11.9913 69.5898 13.0379 70.7361 14.2339 71.7328C15.4499 72.7395 16.8155 73.5767 18.3504 74.2047C19.2176 74.5635 20.1445 74.8625 21.1114 75.1017V82.5672C19.1179 82.2084 17.2839 81.6702 15.5696 80.9625C13.307 80.0256 11.3036 78.8195 9.53935 77.3444C7.86485 75.9489 6.39966 74.3642 5.15375 72.6398C1.83464 68.0549 0.0405333 62.4533 0.000664157 56.8716C-0.039205 51.2301 1.71504 45.6185 5.5026 41.0734C6.72858 39.5983 8.17383 38.2427 9.8284 37.0467C11.7521 35.6512 13.9549 34.4751 16.4467 33.5083C18.161 32.8405 19.995 32.2823 21.9287 31.8338C24.1215 23.1224 28.7961 16.4144 34.8064 11.7597C40.4279 7.40397 47.1957 4.86231 54.1629 4.19451C57.8209 3.84565 61.5287 4.00513 65.1568 4.6829C65.077 5.01182 65.0073 5.34074 64.9674 5.67963L64.9574 5.73943C64.8876 6.30757 64.8577 6.8757 64.8876 7.45381C64.1202 7.75282 63.4025 8.16148 62.7547 8.65985L62.7248 8.67978C61.7579 9.40739 60.9406 10.3443 60.3326 11.4208ZM113.069 30.558C113.628 31.0663 114.166 31.5946 114.694 32.1627C115.761 33.3089 116.767 34.6047 117.714 36.0499C120.904 40.9538 122.538 47.5023 122.469 53.9113C122.399 60.2006 120.704 66.4601 117.236 71.065C114.973 74.0651 112.073 76.5171 108.594 78.4607C106.212 79.7963 103.531 80.9027 100.61 81.7997V74.0751C102.185 73.487 103.65 72.8292 104.996 72.0816C107.617 70.6165 109.76 68.8323 111.365 66.6894C113.857 63.3702 115.083 58.6757 115.133 53.8615C115.193 48.808 113.957 43.7347 111.554 40.0468C110.867 38.9803 110.109 38.0235 109.312 37.1663C109.003 36.8373 108.694 36.5284 108.375 36.2293C108.425 35.731 108.445 35.2226 108.415 34.7143C109.182 34.4153 109.9 34.0066 110.548 33.5083L110.578 33.4883C111.604 32.7009 112.461 31.7042 113.069 30.558ZM87.7925 12.7564C92.3874 13.3843 95.5968 17.6204 94.9689 22.2153C94.341 26.8103 90.1049 30.0297 85.51 29.4018C80.915 28.7738 77.6956 24.5377 78.3335 19.9428C78.9714 15.3479 83.1975 12.1285 87.7925 12.7564Z" fill="black"/>
</svg>
