<svg width="73" height="100" viewBox="0 0 73 100" fill="none" xmlns="http://www.w3.org/2000/svg">
<path d="M4.44996 96.6543L0.00976562 5.20446L72.533 0V100L4.44996 96.6543Z" fill="#F1618C"/>
<path d="M54.0322 13.3829L54.9573 0.929347L63.6526 0.185852V13.3829L59.2798 9.4089L54.0322 13.3829Z" fill="white"/>
<path d="M42.4286 39.1375L56.726 38.7807C57.0813 24.8624 49.8881 17.9926 37.3668 17.9926C24.8454 17.9926 17.8299 25.1301 17.8299 35.8364C17.8299 54.4833 41.807 54.8401 41.807 65.0111C41.807 67.8662 40.4749 69.5613 37.5444 69.5613C33.7258 69.5613 32.2161 67.0632 32.3938 60.1041H17.3859C16.2314 77.3234 26.2663 81.2491 37.722 81.2491C48.8225 81.2491 57.5253 76.0743 57.5253 64.8327C57.5253 44.8476 33.193 45.3829 33.193 35.4795C33.193 31.4647 36.0347 30.9294 37.722 30.9294C39.4981 30.9294 42.695 31.6431 42.4286 39.1375Z" fill="white"/>
</svg>
