<svg width="100" height="100" viewBox="0 0 100 100" fill="none" xmlns="http://www.w3.org/2000/svg">
<path fill-rule="evenodd" clip-rule="evenodd" d="M66.2235 67.7693V35.4474C66.2234 34.8947 66.0037 34.3646 65.6128 33.9738C65.222 33.583 64.6919 33.3635 64.1391 33.3635H31.855V4.04352e-08H97.4657C97.7394 -5.38795e-05 98.0105 0.0538189 98.2634 0.158542C98.5164 0.263264 98.7462 0.416786 98.9398 0.610338C99.1334 0.80389 99.2869 1.03368 99.3917 1.28659C99.4965 1.5395 99.5504 1.81057 99.5504 2.08432V67.7693H66.2235Z" fill="#8E75FF"/>
<path opacity="0.405" fill-rule="evenodd" clip-rule="evenodd" d="M31.8549 0V33.3635H1.04208C0.836013 33.3634 0.634584 33.3023 0.463245 33.1878C0.291906 33.0733 0.158346 32.9106 0.0794411 32.7202C0.000536099 32.5299 -0.0201735 32.3204 0.019929 32.1183C0.0600314 31.9161 0.159146 31.7304 0.304751 31.5846L31.8549 0ZM66.2233 98.6145V67.7693H99.5503L68.0026 99.351C67.8569 99.4967 67.6712 99.596 67.4691 99.6362C67.267 99.6764 67.0575 99.6558 66.867 99.577C66.6766 99.4981 66.5138 99.3646 66.3993 99.1933C66.2847 99.022 66.2235 98.8206 66.2233 98.6145V98.6145ZM31.8549 33.3635H65.181C65.4574 33.3635 65.7224 33.4732 65.9179 33.6686C66.1134 33.864 66.2232 34.129 66.2233 34.4054V67.7693H33.9392C33.6655 67.7693 33.3944 67.7154 33.1416 67.6107C32.8887 67.5059 32.6589 67.3524 32.4653 67.1588C32.2718 66.9653 32.1183 66.7355 32.0135 66.4826C31.9088 66.2298 31.8549 65.9587 31.8549 65.685V33.3635Z" fill="#8E75FF"/>
</svg>
